<svg width="30" height="30" viewBox="0 0 30 30" fill="none" xmlns="http://www.w3.org/2000/svg">
<g clip-path="url(#clip0_610_43)">
<path d="M12.6912 12.9234C13.8382 12.9234 14.7681 11.9935 14.7681 10.8465C14.7681 9.6994 13.8382 8.76953 12.6912 8.76953C11.5441 8.76953 10.6143 9.6994 10.6143 10.8465C10.6143 11.9935 11.5441 12.9234 12.6912 12.9234Z" fill="#3468D1"/>
<path d="M17.3084 12.9234C18.4554 12.9234 19.3853 11.9935 19.3853 10.8465C19.3853 9.6994 18.4554 8.76953 17.3084 8.76953C16.1613 8.76953 15.2314 9.6994 15.2314 10.8465C15.2314 11.9935 16.1613 12.9234 17.3084 12.9234Z" fill="#3468D1"/>
<path d="M19.614 17.0767C20.7611 17.0767 21.691 16.1468 21.691 14.9998C21.691 13.8527 20.7611 12.9229 19.614 12.9229C18.467 12.9229 17.5371 13.8527 17.5371 14.9998C17.5371 16.1468 18.467 17.0767 19.614 17.0767Z" fill="#3468D1"/>
<path d="M22.1532 11.9997C22.9179 11.9997 23.5378 11.3798 23.5378 10.6151C23.5378 9.85038 22.9179 9.23047 22.1532 9.23047C21.3885 9.23047 20.7686 9.85038 20.7686 10.6151C20.7686 11.3798 21.3885 11.9997 22.1532 11.9997Z" fill="#3468D1"/>
<path d="M22.1532 20.3073C22.9179 20.3073 23.5378 19.6874 23.5378 18.9227C23.5378 18.158 22.9179 17.5381 22.1532 17.5381C21.3885 17.5381 20.7686 18.158 20.7686 18.9227C20.7686 19.6874 21.3885 20.3073 22.1532 20.3073Z" fill="#3468D1"/>
<path d="M14.7704 25.3845C15.5351 25.3845 16.155 24.7646 16.155 23.9998C16.155 23.2351 15.5351 22.6152 14.7704 22.6152C14.0057 22.6152 13.3857 23.2351 13.3857 23.9998C13.3857 24.7646 14.0057 25.3845 14.7704 25.3845Z" fill="#3468D1"/>
<path d="M14.7704 7.38447C15.5351 7.38447 16.155 6.76455 16.155 5.99985C16.155 5.23515 15.5351 4.61523 14.7704 4.61523C14.0057 4.61523 13.3857 5.23515 13.3857 5.99985C13.3857 6.76455 14.0057 7.38447 14.7704 7.38447Z" fill="#3468D1"/>
<path d="M20.0767 6.92293C20.7139 6.92293 21.2305 6.40633 21.2305 5.76908C21.2305 5.13183 20.7139 4.61523 20.0767 4.61523C19.4394 4.61523 18.9229 5.13183 18.9229 5.76908C18.9229 6.40633 19.4394 6.92293 20.0767 6.92293Z" fill="#3468D1"/>
<path d="M9.46244 6.92293C10.0997 6.92293 10.6163 6.40633 10.6163 5.76908C10.6163 5.13183 10.0997 4.61523 9.46244 4.61523C8.82519 4.61523 8.30859 5.13183 8.30859 5.76908C8.30859 6.40633 8.82519 6.92293 9.46244 6.92293Z" fill="#3468D1"/>
<path d="M7.61516 3.23032C7.99751 3.23032 8.30747 2.92036 8.30747 2.53801C8.30747 2.15566 7.99751 1.8457 7.61516 1.8457C7.23281 1.8457 6.92285 2.15566 6.92285 2.53801C6.92285 2.92036 7.23281 3.23032 7.61516 3.23032Z" fill="#3468D1"/>
<path d="M21.9238 3.23032C22.3061 3.23032 22.6161 2.92036 22.6161 2.53801C22.6161 2.15566 22.3061 1.8457 21.9238 1.8457C21.5414 1.8457 21.2314 2.15566 21.2314 2.53801C21.2314 2.92036 21.5414 3.23032 21.9238 3.23032Z" fill="#3468D1"/>
<path d="M29.3066 15.2303C29.6889 15.2303 29.9989 14.9204 29.9989 14.538C29.9989 14.1557 29.6889 13.8457 29.3066 13.8457C28.9242 13.8457 28.6143 14.1557 28.6143 14.538C28.6143 14.9204 28.9242 15.2303 29.3066 15.2303Z" fill="#3468D1"/>
<path d="M0.692307 15.2303C1.07466 15.2303 1.38461 14.9204 1.38461 14.538C1.38461 14.1557 1.07466 13.8457 0.692307 13.8457C0.309956 13.8457 0 14.1557 0 14.538C0 14.9204 0.309956 15.2303 0.692307 15.2303Z" fill="#3468D1"/>
<path d="M21.9238 27.6922C22.3061 27.6922 22.6161 27.3823 22.6161 26.9999C22.6161 26.6176 22.3061 26.3076 21.9238 26.3076C21.5414 26.3076 21.2314 26.6176 21.2314 26.9999C21.2314 27.3823 21.5414 27.6922 21.9238 27.6922Z" fill="#3468D1"/>
<path d="M7.61516 27.6922C7.99751 27.6922 8.30747 27.3823 8.30747 26.9999C8.30747 26.6176 7.99751 26.3076 7.61516 26.3076C7.23281 26.3076 6.92285 26.6176 6.92285 26.9999C6.92285 27.3823 7.23281 27.6922 7.61516 27.6922Z" fill="#3468D1"/>
<path d="M14.7688 1.84615C15.2786 1.84615 15.6919 1.43288 15.6919 0.923077C15.6919 0.413276 15.2786 0 14.7688 0C14.259 0 13.8457 0.413276 13.8457 0.923077C13.8457 1.43288 14.259 1.84615 14.7688 1.84615Z" fill="#3468D1"/>
<path d="M14.7688 30.0005C15.2786 30.0005 15.6919 29.5872 15.6919 29.0774C15.6919 28.5676 15.2786 28.1543 14.7688 28.1543C14.259 28.1543 13.8457 28.5676 13.8457 29.0774C13.8457 29.5872 14.259 30.0005 14.7688 30.0005Z" fill="#3468D1"/>
<path d="M26.3088 9.23092C26.8186 9.23092 27.2319 8.81764 27.2319 8.30784C27.2319 7.79804 26.8186 7.38477 26.3088 7.38477C25.799 7.38477 25.3857 7.79804 25.3857 8.30784C25.3857 8.81764 25.799 9.23092 26.3088 9.23092Z" fill="#3468D1"/>
<path d="M3.69163 9.23092C4.20143 9.23092 4.61471 8.81764 4.61471 8.30784C4.61471 7.79804 4.20143 7.38477 3.69163 7.38477C3.18183 7.38477 2.76855 7.79804 2.76855 8.30784C2.76855 8.81764 3.18183 9.23092 3.69163 9.23092Z" fill="#3468D1"/>
<path d="M26.3088 22.1538C26.8186 22.1538 27.2319 21.7405 27.2319 21.2307C27.2319 20.7209 26.8186 20.3076 26.3088 20.3076C25.799 20.3076 25.3857 20.7209 25.3857 21.2307C25.3857 21.7405 25.799 22.1538 26.3088 22.1538Z" fill="#3468D1"/>
<path d="M3.69163 22.1538C4.20143 22.1538 4.61471 21.7405 4.61471 21.2307C4.61471 20.7209 4.20143 20.3076 3.69163 20.3076C3.18183 20.3076 2.76855 20.7209 2.76855 21.2307C2.76855 21.7405 3.18183 22.1538 3.69163 22.1538Z" fill="#3468D1"/>
<path d="M4.38529 15.6925C5.02254 15.6925 5.53914 15.1759 5.53914 14.5386C5.53914 13.9014 5.02254 13.3848 4.38529 13.3848C3.74804 13.3848 3.23145 13.9014 3.23145 14.5386C3.23145 15.1759 3.74804 15.6925 4.38529 15.6925Z" fill="#3468D1"/>
<path d="M9.46244 24.9229C10.0997 24.9229 10.6163 24.4063 10.6163 23.7691C10.6163 23.1318 10.0997 22.6152 9.46244 22.6152C8.82519 22.6152 8.30859 23.1318 8.30859 23.7691C8.30859 24.4063 8.82519 24.9229 9.46244 24.9229Z" fill="#3468D1"/>
<path d="M20.0767 24.9229C20.7139 24.9229 21.2305 24.4063 21.2305 23.7691C21.2305 23.1318 20.7139 22.6152 20.0767 22.6152C19.4394 22.6152 18.9229 23.1318 18.9229 23.7691C18.9229 24.4063 19.4394 24.9229 20.0767 24.9229Z" fill="#3468D1"/>
<path d="M25.1538 15.6925C25.7911 15.6925 26.3077 15.1759 26.3077 14.5386C26.3077 13.9014 25.7911 13.3848 25.1538 13.3848C24.5166 13.3848 24 13.9014 24 14.5386C24 15.1759 24.5166 15.6925 25.1538 15.6925Z" fill="#3468D1"/>
<path d="M7.84751 20.3073C8.61221 20.3073 9.23212 19.6874 9.23212 18.9227C9.23212 18.158 8.61221 17.5381 7.84751 17.5381C7.0828 17.5381 6.46289 18.158 6.46289 18.9227C6.46289 19.6874 7.0828 20.3073 7.84751 20.3073Z" fill="#3468D1"/>
<path d="M7.84751 11.9997C8.61221 11.9997 9.23212 11.3798 9.23212 10.6151C9.23212 9.85038 8.61221 9.23047 7.84751 9.23047C7.0828 9.23047 6.46289 9.85038 6.46289 10.6151C6.46289 11.3798 7.0828 11.9997 7.84751 11.9997Z" fill="#3468D1"/>
<path d="M17.3084 21.231C18.4554 21.231 19.3853 20.3011 19.3853 19.1541C19.3853 18.007 18.4554 17.0771 17.3084 17.0771C16.1613 17.0771 15.2314 18.007 15.2314 19.1541C15.2314 20.3011 16.1613 21.231 17.3084 21.231Z" fill="#3468D1"/>
<path d="M12.6912 21.231C13.8382 21.231 14.7681 20.3011 14.7681 19.1541C14.7681 18.007 13.8382 17.0771 12.6912 17.0771C11.5441 17.0771 10.6143 18.007 10.6143 19.1541C10.6143 20.3011 11.5441 21.231 12.6912 21.231Z" fill="#3468D1"/>
<path d="M10.3855 17.0767C11.5326 17.0767 12.4625 16.1468 12.4625 14.9998C12.4625 13.8527 11.5326 12.9229 10.3855 12.9229C9.23847 12.9229 8.30859 13.8527 8.30859 14.9998C8.30859 16.1468 9.23847 17.0767 10.3855 17.0767Z" fill="#3468D1"/>
</g>
<defs>
<clipPath id="clip0_610_43">
<rect width="30" height="30" fill="white"/>
</clipPath>
</defs>
</svg>
