<svg width="30" height="30" viewBox="0 0 30 30" fill="none" xmlns="http://www.w3.org/2000/svg">
<g clip-path="url(#clip0_383_23)">
<circle cx="15.5" cy="14.5" r="12.5" fill="white"/>
<path d="M15 0C23.2847 0 30 6.71531 30 15C30 23.2847 23.2847 30 15 30C6.71531 30 0 23.2847 0 15C0 6.71531 6.71531 0 15 0ZM17.8997 6.5625H15.6497L15.5972 6.64125L13.4916 10.2863L11.3334 14.0231L9.18938 17.7469L7.03125 21.4838H9.60938L11.7684 17.7469L13.9256 14.0231L16.0706 10.2863L16.4269 9.69375L16.5834 10.2863L17.2416 12.7462L16.5047 14.0231L14.3475 17.7469L12.2025 21.4838H14.7806L16.9388 17.7469L18.0572 15.8128L18.5841 17.7469L19.5834 21.4838H21.8991L20.8997 17.7469L19.8994 14.0231L19.6369 13.0622L21.2419 10.2863H18.9L18.8203 10.0097L18.0047 6.95719L17.8997 6.5625Z" fill="black"/>
</g>
<defs>
<clipPath id="clip0_383_23">
<rect width="30" height="30" fill="white"/>
</clipPath>
</defs>
</svg>
