<svg width="30" height="30" viewBox="0 0 30 30" fill="none" xmlns="http://www.w3.org/2000/svg">
<g clip-path="url(#clip0_383_37)">
<path d="M24.258 5.13354H5.72278V21.9911H24.258V5.13354Z" fill="white"/>
<path fill-rule="evenodd" clip-rule="evenodd" d="M30 15C30 23.2848 23.2848 30 15 30C6.7152 30 0 23.2848 0 15C0 6.7152 6.7152 0 15 0C23.2848 0 30 6.7152 30 15ZM10.7496 20.9688H7.8384C7.2264 20.9688 6.924 20.9688 6.7404 20.8512C6.5412 20.7216 6.42 20.508 6.4044 20.2728C6.3936 20.0556 6.5448 19.7904 6.846 19.26L14.034 6.5904C14.34 6.0528 14.4948 5.784 14.6904 5.6844C14.9004 5.5776 15.1512 5.5776 15.3612 5.6844C15.5568 5.784 15.7116 6.0528 16.0176 6.5904L17.4948 9.1704L17.502 9.1836C17.832 9.7608 18 10.0536 18.0732 10.3608C18.1548 10.6956 18.1548 11.0496 18.0732 11.3856C18 11.6952 17.8332 11.9904 17.4984 12.576L13.7232 19.248L13.7136 19.2648C13.3812 19.8468 13.212 20.142 12.9792 20.364C12.7248 20.6076 12.4188 20.784 12.084 20.8836C11.778 20.9688 11.4348 20.9688 10.7496 20.9688ZM18.1008 20.9688H22.272C22.8876 20.9688 23.1972 20.9688 23.3808 20.8476C23.58 20.718 23.7048 20.5008 23.7156 20.2656C23.7264 20.0556 23.5788 19.8 23.2884 19.3008C23.2788 19.284 23.268 19.266 23.2584 19.2492L21.1692 15.6744L21.1452 15.6336C20.8512 15.1368 20.7036 14.886 20.5128 14.79C20.3028 14.6832 20.0556 14.6832 19.8456 14.79C19.6536 14.8896 19.4988 15.1512 19.194 15.678L17.112 19.2528L17.1048 19.2648C16.8 19.7904 16.6476 20.0544 16.6584 20.2692C16.6728 20.5056 16.7952 20.7228 16.9932 20.8512C17.1756 20.9688 17.4852 20.9688 18.1008 20.9688Z" fill="#E84142"/>
</g>
<defs>
<clipPath id="clip0_383_37">
<rect width="30" height="30" fill="white"/>
</clipPath>
</defs>
</svg>
