<svg width="30" height="30" viewBox="0 0 30 30" fill="none" xmlns="http://www.w3.org/2000/svg">
<g clip-path="url(#clip0_608_2)">
<mask id="mask0_608_2" style="mask-type:luminance" maskUnits="userSpaceOnUse" x="0" y="0" width="30" height="30">
<path d="M0 0H30V30H0V0Z" fill="white"/>
</mask>
<g mask="url(#mask0_608_2)">
<path d="M15.03 29.9697C23.322 29.9697 30.045 23.2542 30.045 14.9697C30.045 6.68523 23.322 -0.0302734 15.03 -0.0302734C6.73802 -0.0302734 0.0150146 6.68523 0.0150146 14.9697C0.0150146 23.2542 6.73802 29.9697 15.03 29.9697Z" fill="#F7931A"/>
<path d="M21.63 12.8438C21.9105 10.8278 20.4105 9.79575 18.345 9.04575L19.002 6.32775L17.3595 5.95275L16.7025 8.57775C16.281 8.48325 15.8115 8.39025 15.39 8.24925L16.047 5.57775L14.4045 5.15625L13.7475 7.87425C13.3725 7.77975 13.0425 7.73325 12.7155 7.64025L10.4625 7.07775L10.041 8.85825L11.2605 9.14025C11.9175 9.32775 12.0585 9.74925 12.0105 10.0777L11.2605 13.1708C11.307 13.1708 11.355 13.2173 11.448 13.2173C11.4015 13.2173 11.355 13.1708 11.2605 13.1708L10.1805 17.4833C10.0875 17.6708 9.90003 17.9993 9.43053 17.8583C9.43053 17.9048 8.21102 17.5778 8.21102 17.5778L7.41302 19.4528L9.57153 19.9688C9.99303 20.0617 10.3695 20.1548 10.7445 20.2493L10.0395 22.9688L11.6835 23.3888L12.339 20.6708C12.8085 20.8118 13.2315 20.9048 13.653 20.9993L12.996 23.6708L14.6385 24.0923L15.3435 21.3743C18.1575 21.8903 20.2695 21.7028 21.1605 19.1708C21.8655 17.1083 21.114 15.9368 19.659 15.1868C20.598 15.0458 21.3945 14.3438 21.63 12.8438ZM17.8755 18.1388C17.3595 20.2028 13.935 19.0778 12.8085 18.7958L13.701 15.1868C14.826 15.4688 18.3915 16.0298 17.8755 18.1388ZM18.393 12.8438C17.9235 14.7188 15.0615 13.7798 14.1225 13.5458L14.9205 10.2652C15.858 10.4527 18.861 10.8757 18.393 12.8438Z" fill="white"/>
</g>
</g>
<defs>
<clipPath id="clip0_608_2">
<rect width="30" height="30" fill="white"/>
</clipPath>
</defs>
</svg>
