<svg width="30" height="30" viewBox="0 0 30 30" fill="none" xmlns="http://www.w3.org/2000/svg">
<circle cx="15" cy="15" r="15" fill="#DCB79A"/>
<path fill-rule="evenodd" clip-rule="evenodd" d="M14.9928 25C12.0232 24.9976 9.63122 24.292 7.95922 23.0256C6.26802 21.7432 5.37042 19.9232 5.37042 17.864C5.37042 15.88 6.26562 14.4496 7.27922 13.4824C8.07282 12.7248 8.94962 12.2392 9.55922 11.96C9.42162 11.5408 9.24882 10.992 9.09522 10.4256C8.88882 9.6672 8.68722 8.7776 8.68722 8.1256C8.68722 7.3536 8.85682 6.5792 9.31522 5.9768C9.79922 5.3408 10.528 5 11.4048 5C12.0904 5 12.672 5.252 13.128 5.6856C13.5632 6.1008 13.8536 6.652 14.0536 7.2264C14.4048 8.236 14.5424 9.504 14.5808 10.7696H15.4208C15.4592 9.504 15.596 8.236 15.948 7.2264C16.148 6.652 16.4376 6.1008 16.8736 5.6856C17.328 5.252 17.9096 5 18.5952 5C19.472 5 20.2008 5.3408 20.6848 5.9768C21.1432 6.5792 21.3128 7.3536 21.3128 8.1256C21.3128 8.7776 21.1104 9.6672 20.9048 10.4256C20.7512 10.992 20.5784 11.5408 20.4408 11.96C21.0512 12.2392 21.9272 12.7248 22.7208 13.4824C23.7336 14.4496 24.6296 15.88 24.6296 17.864C24.6296 19.9232 23.732 21.7424 22.0408 23.0248C20.3696 24.292 17.9768 24.9976 15.0072 24.9992H14.9928V25Z" fill="#633001"/>
<path d="M11.4048 5.73364C10.1208 5.73364 9.52883 6.69204 9.52883 8.01684C9.52883 9.07044 10.216 11.18 10.4976 12.0008C10.5608 12.1856 10.4616 12.388 10.28 12.4592C9.25043 12.8648 6.21283 14.3512 6.21283 17.7552C6.21283 21.3408 9.30003 24.044 14.9928 24.048C14.9952 24.048 14.9976 24.048 14.9992 24.048C15.0016 24.048 15.004 24.048 15.0056 24.048C20.6984 24.044 23.7856 21.34 23.7856 17.7552C23.7856 14.3512 20.748 12.8656 19.7184 12.4592C19.5368 12.3872 19.4368 12.1856 19.5008 12.0008C19.7824 11.1792 20.4696 9.06964 20.4696 8.01684C20.4696 6.69204 19.8784 5.73364 18.5944 5.73364C16.7456 5.73364 16.2848 8.35284 16.252 11.1632C16.2496 11.3512 16.0984 11.5032 15.9104 11.5032H14.0888C13.9016 11.5032 13.7496 11.3512 13.7472 11.1632C13.7144 8.35284 13.2536 5.73364 11.4048 5.73364Z" fill="#D1884F"/>
<path d="M15.0064 22.9001C10.8232 22.9001 6.22003 20.6609 6.21283 17.7625C6.21283 17.7673 6.21283 17.7713 6.21283 17.7761C6.21283 21.3641 9.30483 24.0689 15.0064 24.0689C20.708 24.0689 23.8 21.3641 23.8 17.7761C23.8 17.7713 23.8 17.7673 23.8 17.7625C23.7936 20.6609 19.1896 22.9001 15.0064 22.9001Z" fill="#FEDC90"/>
<path d="M12.6824 16.872C12.6824 17.8504 12.22 18.36 11.6496 18.36C11.0792 18.36 10.6168 17.8504 10.6168 16.872C10.6168 15.8936 11.0792 15.384 11.6496 15.384C12.22 15.384 12.6824 15.8936 12.6824 16.872Z" fill="#633001"/>
<path d="M19.3968 16.872C19.3968 17.8504 18.9344 18.36 18.364 18.36C17.7936 18.36 17.3312 17.8504 17.3312 16.872C17.3312 15.8936 17.7936 15.384 18.364 15.384C18.9344 15.384 19.3968 15.8936 19.3968 16.872Z" fill="#633001"/>
</svg>
