<svg width="30" height="30" viewBox="0 0 30 30" fill="none" xmlns="http://www.w3.org/2000/svg">
<path d="M15 0C23.285 0 30 6.7163 30 15C30 23.285 23.285 30 15 30C6.7163 30 0 23.2844 0 15C0 6.7163 6.7163 0 15 0Z" fill="#F5AC37"/>
<path d="M15.5529 16.0587H21.2526C21.3741 16.0587 21.4315 16.0587 21.4403 15.8994C21.4869 15.3196 21.4869 14.7364 21.4403 14.1559C21.4403 14.0431 21.3842 13.9966 21.2621 13.9966H9.9186C9.7782 13.9966 9.7404 14.0431 9.7404 14.1748V15.8434C9.7404 16.0587 9.7404 16.0587 9.9652 16.0587H15.5529ZM20.8037 12.0465C20.8199 12.0039 20.8199 11.9574 20.8037 11.9155C20.7086 11.7083 20.5958 11.5105 20.4649 11.3249C20.2678 11.0076 20.0356 10.7154 19.771 10.4528C19.6461 10.2942 19.5017 10.1517 19.3397 10.0309C18.5283 9.34043 17.5637 8.85173 16.5269 8.60603C16.0038 8.48853 15.4692 8.43253 14.9332 8.43723H9.899C9.7586 8.43723 9.7397 8.49323 9.7397 8.61543V11.9432C9.7397 12.0836 9.7397 12.1214 9.9179 12.1214H20.7362C20.7362 12.1214 20.8301 12.1025 20.849 12.0465H20.8037ZM20.8037 18.0088C20.6444 17.9913 20.4838 17.9913 20.3245 18.0088H9.928C9.7876 18.0088 9.7404 18.0088 9.7404 18.1965V21.45C9.7404 21.5998 9.7404 21.6376 9.928 21.6376H14.728C14.9575 21.6552 15.187 21.639 15.4118 21.5911C16.1084 21.5411 16.7935 21.3899 17.4469 21.1408C17.6845 21.0585 17.914 20.9512 18.1307 20.8222H18.1962C19.3214 20.237 20.2354 19.3176 20.8118 18.189C20.8118 18.189 20.8773 18.0473 20.8037 18.0102V18.0088ZM7.8564 23.3245V23.2685V21.0841V20.3437V18.1404C7.8564 18.0183 7.8564 18 7.7066 18H5.67212C5.55939 18 5.51282 18 5.51282 17.8502V16.0688H7.6877C7.8092 16.0688 7.8564 16.0688 7.8564 15.9095V14.1471C7.8564 14.0344 7.8564 14.0067 7.7066 14.0067H5.67212C5.55939 14.0067 5.51282 14.0067 5.51282 13.8568V12.2071C5.51282 12.1038 5.51282 12.0762 5.66267 12.0762H7.6782C7.8186 12.0762 7.8564 12.0762 7.8564 11.898V6.84493C7.8564 6.69503 7.8564 6.65723 8.0441 6.65723H15.075C15.5853 6.67753 16.0922 6.73353 16.5937 6.82603C17.6272 7.01703 18.6201 7.38623 19.528 7.91343C20.1301 8.26783 20.6843 8.69573 21.1777 9.18853C21.549 9.57393 21.8838 9.99113 22.1808 10.4352C22.4757 10.8855 22.7208 11.3667 22.9131 11.8696C22.9368 12.0006 23.0623 12.089 23.1933 12.0667H24.8713C25.0867 12.0667 25.0867 12.0667 25.0961 12.2733V13.8109C25.0961 13.9608 25.0401 13.9986 24.8896 13.9986H23.5956C23.4646 13.9986 23.4268 13.9986 23.4363 14.1673C23.4876 14.7384 23.4876 15.3115 23.4363 15.8825C23.4363 16.0418 23.4363 16.0607 23.6151 16.0607H25.0954C25.1609 16.1451 25.0954 16.2295 25.0954 16.3145C25.1049 16.4232 25.1049 16.5332 25.0954 16.6419V17.7766C25.0954 17.9359 25.0489 17.9832 24.9078 17.9832H23.1359C23.0124 17.9595 22.8922 18.0385 22.8639 18.1614C22.442 19.2582 21.767 20.2417 20.8949 21.0301C20.5763 21.317 20.2415 21.587 19.8918 21.8361C19.5165 22.0521 19.1513 22.2769 18.7666 22.4551C18.0585 22.7737 17.316 23.0086 16.5539 23.1578C15.8303 23.2874 15.0966 23.3461 14.3601 23.336H7.8537V23.3265L7.8564 23.3245Z" fill="#FEFEFD"/>
</svg>
