<svg width="30" height="30" viewBox="0 0 30 30" fill="none" xmlns="http://www.w3.org/2000/svg">
<g clip-path="url(#clip0_611_5)">
<path d="M15.0159 30.0156C23.3001 30.0156 30.0159 23.2999 30.0159 15.0156C30.0159 6.73135 23.3001 0.015625 15.0159 0.015625C6.7316 0.015625 0.0158691 6.73135 0.0158691 15.0156C0.0158691 23.2999 6.7316 30.0156 15.0159 30.0156Z" fill="#008DE4"/>
<path d="M18.2067 6.60742H10.6765L10.053 10.0942L16.8483 10.1037C20.1951 10.1037 21.1845 11.319 21.1558 13.3328C21.1399 14.3667 20.6946 16.1133 20.5005 16.6795C19.9851 18.1875 18.9257 19.9118 14.9554 19.9054L8.35097 19.9022L7.72424 23.3922H15.2354C17.8854 23.3922 19.0116 23.0836 20.2046 22.5332C22.8515 21.3116 24.4263 18.6997 25.0562 15.2925C25.9947 10.2182 24.8239 6.60742 18.2067 6.60742Z" fill="white"/>
<path d="M7.4284 13.25C5.45597 13.25 5.17283 14.5353 4.98831 15.3115C4.74335 16.3295 4.66382 16.7399 4.66382 16.7399H12.3722C14.3446 16.7399 14.6278 15.4547 14.8123 14.6784C15.0572 13.6604 15.1368 13.25 15.1368 13.25H7.4284Z" fill="white"/>
</g>
<defs>
<clipPath id="clip0_611_5">
<rect width="30" height="30" fill="white"/>
</clipPath>
</defs>
</svg>
