<svg width="30" height="30" viewBox="0 0 30 30" fill="none" xmlns="http://www.w3.org/2000/svg">
<g clip-path="url(#clip0_611_10)">
<path d="M15.3619 9.88477H13.2188V14.1101H16.5906V15.8792H13.2188V20.1043H15.467C16.0446 20.1043 20.2094 20.1695 20.2029 15.1885C20.1965 10.2074 16.1635 9.88477 15.3619 9.88477Z" fill="#C2A633"/>
<path d="M15 0C6.71565 0 0 6.71565 0 15C0 23.2844 6.71565 30 15 30C23.2844 30 30 23.2844 30 15C30 6.71565 23.2844 0 15 0ZM15.5894 23.1015H10.1571V15.8796H8.2422V14.1105H10.1569V6.88815H14.8193C15.9222 6.88815 23.2276 6.6591 23.2276 15.1303C23.2276 23.7417 15.5894 23.1015 15.5894 23.1015Z" fill="#C2A633"/>
</g>
<defs>
<clipPath id="clip0_611_10">
<rect width="30" height="30" fill="white"/>
</clipPath>
</defs>
</svg>
