<svg width="30" height="30" viewBox="0 0 30 30" fill="none" xmlns="http://www.w3.org/2000/svg">
<path d="M15.481 1C9.70217 1.02397 5.02321 5.85636 5 11.8247C5 13.0199 5.18681 14.2071 5.55268 15.3408C5.8257 16.1125 6.63594 16.5281 7.39645 16.2895C8.13149 15.9984 8.52167 15.1684 8.28737 14.3921C7.97673 13.5085 7.83853 12.5713 7.87942 11.6329C8.0055 7.32221 11.4907 3.93277 15.6646 4.06291C19.8384 4.19305 23.1202 7.79249 22.9942 12.1032C22.8759 16.1387 19.7986 19.4162 15.8956 19.6617C15.8956 19.6617 14.4243 19.7542 13.6925 19.8467C13.4229 19.8866 13.1554 19.9414 12.8912 20.0111C12.8536 20.0511 12.7928 20.0511 12.7541 20.0122L12.753 20.0111C12.7265 19.9757 12.7265 19.9254 12.753 19.89L12.9807 18.6069L14.3624 12.1888C14.5283 11.3874 14.0341 10.5986 13.2582 10.4274C12.4822 10.2561 11.7184 10.7664 11.5526 11.5678C11.5526 11.5678 8.26631 27.2774 8.26631 27.4201C8.07846 28.1838 8.52496 28.96 9.26451 29.1542C9.27222 29.1564 9.28106 29.1587 9.28877 29.1598H9.36511C10.1034 29.3573 10.8573 28.8984 11.0474 28.1358C11.0508 28.1232 11.0541 28.1107 11.0562 28.097C11.0541 28.073 11.0541 28.0491 11.0562 28.0262C11.0971 27.8413 11.5117 25.7511 11.5117 25.7511C11.8256 24.1733 13.057 22.9643 14.5978 22.7201C14.9151 22.6699 16.2481 22.5773 16.2481 22.5773C22.0048 21.9848 26.2063 16.6844 25.6316 10.739C25.1076 5.31639 20.758 1.14155 15.481 1Z" fill="black"/>
<path d="M17.0157 25.6374C16.0706 25.4368 15.1465 26.0554 14.9497 27.0178C14.9476 27.0268 14.9464 27.0358 14.9443 27.0449C14.7398 28.0016 15.3344 28.947 16.274 29.1555L16.2773 29.1566H16.3259C17.2456 29.3831 18.1707 28.8061 18.3918 27.8697C18.394 27.8629 18.3951 27.855 18.3973 27.8483V27.7503C18.5598 26.7834 17.9541 25.856 17.0157 25.6374Z" fill="#E6007A"/>
</svg>
