<svg width="192" height="192" viewBox="0 0 192 192" fill="none" xmlns="http://www.w3.org/2000/svg">
<path d="M96 192C149.019 192 192 149.019 192 96C192 42.9807 149.019 0 96 0C42.9807 0 0 42.9807 0 96C0 149.019 42.9807 192 96 192Z" fill="#3390EC"/>
<path d="M111.546 90.6752L65.7009 136.52C63.085 139.136 63.085 143.379 65.7009 146.011C67.0089 147.319 68.7193 147.973 70.4464 147.973C72.1736 147.973 73.884 147.319 75.1919 146.011L121.037 100.166C121.557 99.6463 122.261 99.3445 122.999 99.3445C124.525 99.3445 125.783 100.585 125.783 102.128V126.174C125.783 129.88 128.784 132.882 132.49 132.882C136.196 132.882 139.197 129.88 139.197 126.174V102.128C139.197 93.2072 131.937 85.9297 122.999 85.9297C118.673 85.9297 114.615 87.6065 111.546 90.6752Z" fill="white"/>
<path d="M68.1994 106.05C72.5256 106.05 76.5836 104.373 79.6523 101.304L125.497 55.4592C128.113 52.8433 128.113 48.6009 125.497 45.9682C122.882 43.3356 118.622 43.3523 116.006 45.9682L70.1613 91.8133C69.6415 92.3332 68.9372 92.635 68.1994 92.635C66.6734 92.635 65.4158 91.3941 65.4158 89.8514V65.8054C65.4158 62.0995 62.4142 59.098 58.7084 59.098C55.0025 59.098 52.001 62.0995 52.001 65.8054V89.8514C52.001 98.7723 59.2617 106.05 68.1994 106.05Z" fill="white"/>
</svg>
