<svg width="197" height="46" viewBox="0 0 197 46" fill="none" xmlns="http://www.w3.org/2000/svg">
<path d="M22.998 45.9961C35.6995 45.9961 45.9961 35.6995 45.9961 22.998C45.9961 10.2966 35.6995 0 22.998 0C10.2966 0 0 10.2966 0 22.998C0 35.6995 10.2966 45.9961 22.998 45.9961Z" fill="#3390EC"/>
<path d="M26.7223 21.7228L15.7395 32.7056C15.1129 33.3322 15.1129 34.3486 15.7395 34.9793C16.0529 35.2926 16.4626 35.4493 16.8764 35.4493C17.2901 35.4493 17.6999 35.2926 18.0132 34.9793L28.996 23.9965C29.1205 23.8719 29.2893 23.7996 29.466 23.7996C29.8316 23.7996 30.1329 24.0969 30.1329 24.4665V30.227C30.1329 31.1148 30.8519 31.8339 31.7397 31.8339C32.6275 31.8339 33.3466 31.1148 33.3466 30.227V24.4665C33.3466 22.3294 31.6071 20.5859 29.466 20.5859C28.4296 20.5859 27.4575 20.9876 26.7223 21.7228Z" fill="white"/>
<path d="M16.3381 25.4059C17.3745 25.4059 18.3466 25.0041 19.0817 24.269L30.0645 13.2862C30.6912 12.6595 30.6912 11.6432 30.0645 11.0125C29.4379 10.3818 28.4175 10.3859 27.7909 11.0125L16.8081 21.9953C16.6835 22.1199 16.5148 22.1922 16.3381 22.1922C15.9725 22.1922 15.6712 21.8949 15.6712 21.5253V15.7648C15.6712 14.877 14.9521 14.1579 14.0644 14.1579C13.1766 14.1579 12.4575 14.877 12.4575 15.7648V21.5253C12.4575 23.6624 14.1969 25.4059 16.3381 25.4059Z" fill="white"/>
<path d="M64.512 32.288C63.168 32.288 61.88 32.112 60.648 31.76C59.416 31.392 58.424 30.92 57.672 30.344L58.992 27.416C59.712 27.928 60.56 28.352 61.536 28.688C62.528 29.008 63.528 29.168 64.536 29.168C65.304 29.168 65.92 29.096 66.384 28.952C66.864 28.792 67.216 28.576 67.44 28.304C67.664 28.032 67.776 27.72 67.776 27.368C67.776 26.92 67.6 26.568 67.248 26.312C66.896 26.04 66.432 25.824 65.856 25.664C65.28 25.488 64.64 25.328 63.936 25.184C63.248 25.024 62.552 24.832 61.848 24.608C61.16 24.384 60.528 24.096 59.952 23.744C59.376 23.392 58.904 22.928 58.536 22.352C58.184 21.776 58.008 21.04 58.008 20.144C58.008 19.184 58.264 18.312 58.776 17.528C59.304 16.728 60.088 16.096 61.128 15.632C62.184 15.152 63.504 14.912 65.088 14.912C66.144 14.912 67.184 15.04 68.208 15.296C69.232 15.536 70.136 15.904 70.92 16.4L69.72 19.352C68.936 18.904 68.152 18.576 67.368 18.368C66.584 18.144 65.816 18.032 65.064 18.032C64.312 18.032 63.696 18.12 63.216 18.296C62.736 18.472 62.392 18.704 62.184 18.992C61.976 19.264 61.872 19.584 61.872 19.952C61.872 20.384 62.048 20.736 62.4 21.008C62.752 21.264 63.216 21.472 63.792 21.632C64.368 21.792 65 21.952 65.688 22.112C66.392 22.272 67.088 22.456 67.776 22.664C68.48 22.872 69.12 23.152 69.696 23.504C70.272 23.856 70.736 24.32 71.088 24.896C71.456 25.472 71.64 26.2 71.64 27.08C71.64 28.024 71.376 28.888 70.848 29.672C70.32 30.456 69.528 31.088 68.472 31.568C67.432 32.048 66.112 32.288 64.512 32.288ZM76.9903 32L72.3343 19.088H75.8623L79.7263 30.2H78.0463L82.0783 19.088H85.2463L89.1583 30.2H87.4783L91.4623 19.088H94.7743L90.0943 32H86.4703L83.0383 22.472H84.1423L80.5903 32H76.9903ZM104.253 32V29.48L104.013 28.928V24.416C104.013 23.616 103.765 22.992 103.269 22.544C102.789 22.096 102.045 21.872 101.037 21.872C100.349 21.872 99.669 21.984 98.997 22.208C98.341 22.416 97.781 22.704 97.317 23.072L95.973 20.456C96.677 19.96 97.525 19.576 98.517 19.304C99.509 19.032 100.517 18.896 101.541 18.896C103.509 18.896 105.037 19.36 106.125 20.288C107.213 21.216 107.757 22.664 107.757 24.632V32H104.253ZM100.317 32.192C99.309 32.192 98.445 32.024 97.725 31.688C97.005 31.336 96.453 30.864 96.069 30.272C95.685 29.68 95.493 29.016 95.493 28.28C95.493 27.512 95.677 26.84 96.045 26.264C96.429 25.688 97.029 25.24 97.845 24.92C98.661 24.584 99.725 24.416 101.037 24.416H104.469V26.6H101.445C100.565 26.6 99.957 26.744 99.621 27.032C99.301 27.32 99.141 27.68 99.141 28.112C99.141 28.592 99.325 28.976 99.693 29.264C100.077 29.536 100.597 29.672 101.253 29.672C101.877 29.672 102.437 29.528 102.933 29.24C103.429 28.936 103.789 28.496 104.013 27.92L104.589 29.648C104.317 30.48 103.821 31.112 103.101 31.544C102.381 31.976 101.453 32.192 100.317 32.192ZM119.018 32.192C117.93 32.192 116.978 31.952 116.162 31.472C115.346 30.992 114.706 30.264 114.242 29.288C113.794 28.296 113.57 27.048 113.57 25.544C113.57 24.024 113.786 22.776 114.218 21.8C114.65 20.824 115.274 20.096 116.09 19.616C116.906 19.136 117.882 18.896 119.018 18.896C120.234 18.896 121.322 19.176 122.282 19.736C123.258 20.28 124.026 21.048 124.586 22.04C125.162 23.032 125.45 24.2 125.45 25.544C125.45 26.904 125.162 28.08 124.586 29.072C124.026 30.064 123.258 30.832 122.282 31.376C121.322 31.92 120.234 32.192 119.018 32.192ZM111.386 36.656V19.088H114.962V21.728L114.89 25.568L115.13 29.384V36.656H111.386ZM118.37 29.12C118.994 29.12 119.546 28.976 120.026 28.688C120.522 28.4 120.914 27.992 121.202 27.464C121.506 26.92 121.658 26.28 121.658 25.544C121.658 24.792 121.506 24.152 121.202 23.624C120.914 23.096 120.522 22.688 120.026 22.4C119.546 22.112 118.994 21.968 118.37 21.968C117.746 21.968 117.186 22.112 116.69 22.4C116.194 22.688 115.802 23.096 115.514 23.624C115.226 24.152 115.082 24.792 115.082 25.544C115.082 26.28 115.226 26.92 115.514 27.464C115.802 27.992 116.194 28.4 116.69 28.688C117.186 28.976 117.746 29.12 118.37 29.12ZM136.5 32.288C135.204 32.288 133.996 32.08 132.876 31.664C131.772 31.232 130.812 30.624 129.996 29.84C129.18 29.056 128.54 28.136 128.076 27.08C127.628 26.024 127.404 24.864 127.404 23.6C127.404 22.336 127.628 21.176 128.076 20.12C128.54 19.064 129.18 18.144 129.996 17.36C130.828 16.576 131.796 15.976 132.9 15.56C134.004 15.128 135.212 14.912 136.524 14.912C137.98 14.912 139.292 15.168 140.46 15.68C141.644 16.176 142.636 16.912 143.436 17.888L140.94 20.192C140.364 19.536 139.724 19.048 139.02 18.728C138.316 18.392 137.548 18.224 136.716 18.224C135.932 18.224 135.212 18.352 134.556 18.608C133.9 18.864 133.332 19.232 132.852 19.712C132.372 20.192 131.996 20.76 131.724 21.416C131.468 22.072 131.34 22.8 131.34 23.6C131.34 24.4 131.468 25.128 131.724 25.784C131.996 26.44 132.372 27.008 132.852 27.488C133.332 27.968 133.9 28.336 134.556 28.592C135.212 28.848 135.932 28.976 136.716 28.976C137.548 28.976 138.316 28.816 139.02 28.496C139.724 28.16 140.364 27.656 140.94 26.984L143.436 29.288C142.636 30.264 141.644 31.008 140.46 31.52C139.292 32.032 137.972 32.288 136.5 32.288ZM151.736 32.192C150.36 32.192 149.136 31.904 148.064 31.328C147.008 30.752 146.168 29.968 145.544 28.976C144.936 27.968 144.632 26.824 144.632 25.544C144.632 24.248 144.936 23.104 145.544 22.112C146.168 21.104 147.008 20.32 148.064 19.76C149.136 19.184 150.36 18.896 151.736 18.896C153.096 18.896 154.312 19.184 155.384 19.76C156.456 20.32 157.296 21.096 157.904 22.088C158.512 23.08 158.816 24.232 158.816 25.544C158.816 26.824 158.512 27.968 157.904 28.976C157.296 29.968 156.456 30.752 155.384 31.328C154.312 31.904 153.096 32.192 151.736 32.192ZM151.736 29.12C152.36 29.12 152.92 28.976 153.416 28.688C153.912 28.4 154.304 27.992 154.592 27.464C154.88 26.92 155.024 26.28 155.024 25.544C155.024 24.792 154.88 24.152 154.592 23.624C154.304 23.096 153.912 22.688 153.416 22.4C152.92 22.112 152.36 21.968 151.736 21.968C151.112 21.968 150.552 22.112 150.056 22.4C149.56 22.688 149.16 23.096 148.856 23.624C148.568 24.152 148.424 24.792 148.424 25.544C148.424 26.28 148.568 26.92 148.856 27.464C149.16 27.992 149.56 28.4 150.056 28.688C150.552 28.976 151.112 29.12 151.736 29.12ZM161.559 32V19.088H165.303V32H161.559ZM163.431 17.288C162.743 17.288 162.183 17.088 161.751 16.688C161.319 16.288 161.103 15.792 161.103 15.2C161.103 14.608 161.319 14.112 161.751 13.712C162.183 13.312 162.743 13.112 163.431 13.112C164.119 13.112 164.679 13.304 165.111 13.688C165.543 14.056 165.759 14.536 165.759 15.128C165.759 15.752 165.543 16.272 165.111 16.688C164.695 17.088 164.135 17.288 163.431 17.288ZM176.865 18.896C177.889 18.896 178.801 19.104 179.601 19.52C180.417 19.92 181.057 20.544 181.521 21.392C181.985 22.224 182.217 23.296 182.217 24.608V32H178.473V25.184C178.473 24.144 178.241 23.376 177.777 22.88C177.329 22.384 176.689 22.136 175.857 22.136C175.265 22.136 174.729 22.264 174.249 22.52C173.785 22.76 173.417 23.136 173.145 23.648C172.889 24.16 172.761 24.816 172.761 25.616V32H169.017V19.088H172.593V22.664L171.921 21.584C172.385 20.72 173.049 20.056 173.913 19.592C174.777 19.128 175.761 18.896 176.865 18.896ZM190.195 32.192C189.091 32.192 188.027 32.064 187.003 31.808C185.995 31.536 185.195 31.2 184.603 30.8L185.851 28.112C186.443 28.48 187.139 28.784 187.939 29.024C188.755 29.248 189.555 29.36 190.339 29.36C191.203 29.36 191.811 29.256 192.163 29.048C192.531 28.84 192.715 28.552 192.715 28.184C192.715 27.88 192.571 27.656 192.283 27.512C192.011 27.352 191.643 27.232 191.179 27.152C190.715 27.072 190.203 26.992 189.643 26.912C189.099 26.832 188.547 26.728 187.987 26.6C187.427 26.456 186.915 26.248 186.451 25.976C185.987 25.704 185.611 25.336 185.323 24.872C185.051 24.408 184.915 23.808 184.915 23.072C184.915 22.256 185.147 21.536 185.611 20.912C186.091 20.288 186.779 19.8 187.675 19.448C188.571 19.08 189.643 18.896 190.891 18.896C191.771 18.896 192.667 18.992 193.579 19.184C194.491 19.376 195.251 19.656 195.859 20.024L194.611 22.688C193.987 22.32 193.355 22.072 192.715 21.944C192.091 21.8 191.483 21.728 190.891 21.728C190.059 21.728 189.451 21.84 189.067 22.064C188.683 22.288 188.491 22.576 188.491 22.928C188.491 23.248 188.627 23.488 188.899 23.648C189.187 23.808 189.563 23.936 190.027 24.032C190.491 24.128 190.995 24.216 191.539 24.296C192.099 24.36 192.659 24.464 193.219 24.608C193.779 24.752 194.283 24.96 194.731 25.232C195.195 25.488 195.571 25.848 195.859 26.312C196.147 26.76 196.291 27.352 196.291 28.088C196.291 28.888 196.051 29.6 195.571 30.224C195.091 30.832 194.395 31.312 193.483 31.664C192.587 32.016 191.491 32.192 190.195 32.192Z" fill="black"/>
</svg>
