<svg width="30" height="30" viewBox="0 0 30 30" fill="none" xmlns="http://www.w3.org/2000/svg">
<g clip-path="url(#clip0_610_35)">
<mask id="mask0_610_35" style="mask-type:luminance" maskUnits="userSpaceOnUse" x="0" y="0" width="30" height="30">
<path d="M30 0H0V30H30V0Z" fill="white"/>
</mask>
<g mask="url(#mask0_610_35)">
<path d="M29.9999 14.9999C29.9999 23.2842 23.2842 30 15 30C6.71568 30 0 23.2842 0 14.9999C0 6.7157 6.71568 0 15 0C23.2842 0 29.9999 6.7157 29.9999 14.9999Z" fill="#BEBEBE"/>
<path d="M26.8153 14.9999C26.8153 21.5249 21.5254 26.8153 15.0001 26.8153C8.4748 26.8153 3.18457 21.5249 3.18457 14.9999C3.18457 8.47449 8.4748 3.18457 15.0001 3.18457C21.5256 3.18457 26.8153 8.4744 26.8153 14.9999Z" fill="#BEBEBE"/>
<path d="M14.1231 19.0076L15.0974 15.3389L17.4041 14.4961L17.9778 12.3401L17.9582 12.2866L15.6876 13.1161L17.3237 6.95605H12.684L10.5445 14.9951L8.75822 15.6477L8.16797 17.8704L9.95291 17.2184L8.69198 21.9561H21.0399L21.8315 19.0076H14.1231Z" fill="white"/>
</g>
</g>
<defs>
<clipPath id="clip0_610_35">
<rect width="30" height="30" fill="white"/>
</clipPath>
</defs>
</svg>
