<svg width="30" height="30" viewBox="0 0 30 30" fill="none" xmlns="http://www.w3.org/2000/svg">
<path d="M21.0443 10.9869C20.6126 10.7417 20.0575 10.7417 19.5641 10.9869L16.1101 13.0089L13.7664 14.2955L10.3741 16.3175C9.94234 16.5627 9.38726 16.5627 8.89384 16.3175L6.24172 14.7245C5.80998 14.4794 5.50159 13.9892 5.50159 13.4378V10.3742C5.50159 9.88397 5.7483 9.39378 6.24172 9.08739L8.89384 7.55559C9.3256 7.31051 9.88068 7.31051 10.3741 7.55559L13.0263 9.14865C13.458 9.39378 13.7664 9.88397 13.7664 10.4354V12.4574L16.1101 11.1094V9.02613C16.1101 8.53594 15.8634 8.04576 15.37 7.73941L10.4358 4.8596C10.0041 4.61451 9.44892 4.61451 8.9555 4.8596L3.89797 7.80068C3.40455 8.04576 3.15784 8.53594 3.15784 9.02613V14.7857C3.15784 15.2759 3.40455 15.7661 3.89797 16.0725L8.89384 18.9523C9.3256 19.1974 9.88068 19.1974 10.3741 18.9523L13.7664 16.9916L16.1101 15.6436L19.5024 13.6828C19.9342 13.4378 20.4892 13.4378 20.9827 13.6828L23.6348 15.2147C24.0666 15.4598 24.3749 15.95 24.3749 16.5014V19.565C24.3749 20.0552 24.1282 20.5454 23.6348 20.8517L21.0443 22.3835C20.6126 22.6287 20.0575 22.6287 19.5641 22.3835L16.912 20.8517C16.4802 20.6067 16.1718 20.1165 16.1718 19.565V17.6043L13.828 18.9523V20.9743C13.828 21.4644 14.0748 21.9546 14.5682 22.261L19.5641 25.1408C19.9958 25.3859 20.5509 25.3859 21.0443 25.1408L26.0403 22.261C26.4719 22.0159 26.7804 21.5257 26.7804 20.9743V15.1534C26.7804 14.6632 26.5337 14.173 26.0403 13.8667L21.0443 10.9869Z" fill="#8247E5"/>
</svg>
