<svg width="30" height="30" viewBox="0 0 30 30" fill="none" xmlns="http://www.w3.org/2000/svg">
<path d="M22.7696 4.40908L17.6629 11.9959C17.3098 12.5126 17.9889 13.138 18.4778 12.7029L23.503 8.32484C23.6388 8.21612 23.8289 8.29768 23.8289 8.48802V22.1661C23.8289 22.3565 23.5844 22.438 23.4757 22.3021L8.26459 4.08276C7.77564 3.48452 7.0694 3.1582 6.28168 3.1582H5.73842C4.32596 3.1582 3.15796 4.3275 3.15796 5.76873V25.0213C3.15796 26.4626 4.32596 27.6319 5.76559 27.6319C6.66196 27.6319 7.504 27.1696 7.99293 26.381L13.0996 18.7942C13.4527 18.2775 12.7736 17.6521 12.2847 18.0872L7.25954 22.438C7.12373 22.5468 6.93358 22.4653 6.93358 22.2748V8.62397C6.93358 8.43362 7.17805 8.35207 7.2867 8.48802L22.4979 26.7073C22.9868 27.3056 23.7202 27.6319 24.4808 27.6319H25.0241C26.4637 27.6319 27.6317 26.4626 27.6317 25.0213V5.76873C27.6317 4.3275 26.4637 3.1582 25.0241 3.1582C24.1005 3.1582 23.2585 3.62049 22.7696 4.40908Z" fill="black"/>
</svg>
