<svg width="50" height="50" viewBox="0 0 50 50" fill="none" xmlns="http://www.w3.org/2000/svg">
<g clip-path="url(#clip0_519_105)">
<mask id="mask0_519_105" style="mask-type:luminance" maskUnits="userSpaceOnUse" x="0" y="0" width="50" height="50">
<path d="M50 0H0V50H50V0Z" fill="white"/>
</mask>
<g mask="url(#mask0_519_105)">
<path d="M25 48.75C38.1168 48.75 48.75 38.1168 48.75 25C48.75 11.8832 38.1168 1.25 25 1.25C11.8832 1.25 1.25 11.8832 1.25 25C1.25 38.1168 11.8832 48.75 25 48.75Z" stroke="#C61717" stroke-width="2.5"/>
<path d="M19.6518 17.8837C19.1636 17.3955 18.3721 17.3955 17.884 17.8837C17.3958 18.3719 17.3958 19.1633 17.884 19.6515L30.9655 32.7329C31.4536 33.2211 32.2451 33.2211 32.7332 32.7329C33.2214 32.2448 33.2214 31.4533 32.7332 30.9652L19.6518 17.8837Z" fill="#C61717"/>
<path d="M30.9654 17.8837C31.4535 17.3955 32.245 17.3955 32.7332 17.8837C33.2213 18.3718 33.2213 19.1633 32.7332 19.6515L19.6517 32.7329C19.1635 33.2211 18.3721 33.2211 17.8839 32.7329C17.3958 32.2448 17.3958 31.4533 17.8839 30.9652L30.9654 17.8837Z" fill="#C61717"/>
</g>
</g>
<defs>
<clipPath id="clip0_519_105">
<rect width="50" height="50" fill="white"/>
</clipPath>
</defs>
</svg>
