<svg width="30" height="30" viewBox="0 0 30 30" fill="none" xmlns="http://www.w3.org/2000/svg">
<g clip-path="url(#clip0_930_13)">
<path d="M21.9663 2.63917C21.1855 3.41113 20.4702 4.2478 19.8344 5.13994L19.6334 5.07523C18.474 4.70081 17.2725 4.46968 16.0616 4.3911C15.697 4.36336 14.3365 4.36336 13.8924 4.3911C12.5507 4.47893 11.5221 4.67769 10.3534 5.07985C10.3066 5.09834 10.2645 5.11221 10.2225 5.12608C9.56328 4.23856 8.8293 3.40651 8.02051 2.6438C11.9008 0.679235 16.4403 0.443488 20.503 1.99202C20.9378 2.15381 21.3632 2.34333 21.7793 2.54672L21.9663 2.63917Z" fill="#F00500"/>
<path d="M29.2032 20.1721C28.6141 21.8315 27.7305 23.3708 26.5851 24.7114C25.9633 25.4325 25.2761 26.0935 24.5374 26.6944C22.8076 28.0719 20.788 29.0565 18.6328 29.5742C16.2485 30.1428 13.7614 30.1428 11.3771 29.5742C9.21718 29.0565 7.20222 28.0719 5.47244 26.6944C4.73378 26.0935 4.04654 25.4325 3.42476 24.7114C0.128824 20.8608 -0.871644 15.5727 0.80671 10.8069C1.12462 9.92399 1.522 9.07345 1.99886 8.26451C2.21858 7.89471 2.48974 7.47869 2.62064 7.30766C3.06945 9.21675 3.62111 10.8947 3.82681 11.5003C3.81279 11.5326 3.79409 11.5696 3.77539 11.602C2.68609 13.7838 2.09703 15.887 1.95678 18.1243C1.95678 18.152 1.95211 18.1844 1.95211 18.2121C1.9147 18.8824 1.9334 19.2013 2.04561 19.622C2.39624 20.9394 3.47618 22.3909 5.16856 23.8146C7.94089 26.1443 11.6997 27.8269 14.5468 28.0211C17.5155 28.2198 21.896 26.5049 24.8133 23.9995C25.2714 23.5973 25.7015 23.1721 26.1036 22.7191C26.3934 22.3862 26.8235 21.813 26.7908 21.813C26.7815 21.813 26.7908 21.8038 26.8095 21.7946C26.8235 21.7853 26.8376 21.7714 26.8282 21.7622C26.8235 21.7576 26.8329 21.7437 26.8469 21.7391C26.8609 21.7345 26.8703 21.7252 26.8656 21.716C26.8609 21.7067 26.8656 21.6975 26.8843 21.6929C26.8983 21.6882 26.903 21.6744 26.8983 21.6651C26.8937 21.6559 26.8983 21.6466 26.9077 21.6466C26.917 21.6466 26.9264 21.6328 26.9264 21.6235C26.9264 21.6143 26.9357 21.6004 26.9451 21.6004C26.9544 21.6004 26.9638 21.5912 26.9638 21.5819C26.9778 21.5449 27.0012 21.508 27.0246 21.4756C27.0947 21.3693 27.3752 20.8747 27.4126 20.7915C27.6791 20.1952 27.8474 19.6636 27.9269 19.132C27.9643 18.8778 27.9876 18.4109 27.9689 18.3C27.9643 18.2815 27.9643 18.2491 27.9596 18.1983C27.9502 18.1058 27.9456 17.9671 27.9362 17.8285C27.9269 17.6204 27.9082 17.3292 27.8941 17.1859C27.6931 15.0873 27.1508 13.3724 26.1223 11.5557C26.0802 11.4864 26.0428 11.4171 26.0194 11.3616C26.0101 11.3477 26.0054 11.3339 26.0007 11.3246C26.1457 10.8947 26.7394 9.09656 27.2116 7.03955L27.2209 7.0488L27.291 7.14125C27.4126 7.30303 27.7352 7.78377 27.8801 8.0149C28.5393 9.07807 29.0536 10.2198 29.4182 11.4124C30.2644 14.283 30.1943 17.3431 29.2032 20.1721Z" fill="#F00500"/>
<path d="M23.135 14.6487C23.1209 14.7226 22.9012 14.9445 22.6815 15.1063C22.0363 15.5732 20.8816 16.0077 19.7081 16.2157C19.0396 16.3359 18.3711 16.3544 18.17 16.2573C18.0391 16.1926 18.0204 16.1417 18.0672 15.9753C18.1654 15.6286 18.4833 15.2496 18.9788 14.8936C19.2313 14.7134 20.2551 14.0986 20.732 13.8397C21.5174 13.4145 22.1532 13.1602 22.5833 13.1001C22.7189 13.0816 22.8825 13.077 22.9339 13.1001C23.0181 13.1325 23.1116 13.3775 23.149 13.6733C23.1677 13.8305 23.1583 14.5239 23.135 14.6487Z" fill="black"/>
<path d="M12.1205 16.1786C12.0924 16.234 11.9522 16.2941 11.7932 16.3172C11.6343 16.3403 11.1481 16.3265 10.8722 16.2941C9.88111 16.1647 8.82922 15.8642 8.06251 15.4944C7.6324 15.2864 7.32384 15.0784 7.09476 14.8519L6.96386 14.7178L6.94983 14.5422C6.92646 14.2371 6.93114 13.7564 6.96854 13.5853C6.99191 13.442 7.04334 13.3034 7.11346 13.1785C7.15086 13.1323 7.15086 13.1323 7.31917 13.1323C7.52487 13.1323 7.69785 13.1647 7.97835 13.2525C8.55339 13.4282 9.40893 13.8534 10.4515 14.4728C11.3117 14.9813 11.6343 15.2309 11.882 15.573C12.0503 15.7856 12.1625 16.0861 12.1205 16.1786Z" fill="black"/>
<path d="M18.7402 22.613C18.7402 22.6269 18.6841 22.8487 18.6139 23.1122C18.5438 23.3757 18.4877 23.5883 18.4877 23.5976C18.4363 23.6022 18.3895 23.6068 18.3381 23.6022H18.1885L17.9828 24.0829C17.8706 24.3464 17.7678 24.5914 17.7537 24.6284L17.7257 24.6931L17.6275 24.5359L17.5293 24.3788V23.0983L17.4919 23.1076C17.4124 23.1261 16.8468 23.2 16.599 23.2232C15.5751 23.3249 14.5466 23.3017 13.5275 23.1584C13.3638 23.1353 13.2236 23.1168 13.2189 23.1215C13.2142 23.1261 13.2189 23.4219 13.2283 23.7871L13.2423 24.4435L13.1628 24.5637C13.1207 24.6284 13.0786 24.6839 13.0786 24.6885C13.0646 24.7024 13.0179 24.6284 12.9103 24.4158C12.7935 24.1939 12.7093 23.9581 12.6485 23.7131L12.6158 23.5791L12.4709 23.5883L12.326 23.6022L12.2886 23.4312C12.2699 23.3387 12.2465 23.1954 12.2371 23.1168L12.2231 22.9689L12.1016 22.8626C12.0314 22.8025 11.9613 22.7424 11.9473 22.7332C11.9239 22.7147 11.9146 22.6823 11.9146 22.6546V22.5991L12.4989 22.6037L13.0833 22.6084L13.102 22.6685L13.1207 22.7285L13.3218 22.7378C13.434 22.7424 13.7893 22.7517 14.1072 22.7609L14.6916 22.7748L14.8412 22.5436L14.9954 22.3125H15.1918L15.1871 21.8318L15.1824 21.351L14.9253 21.2401C14.0978 20.8795 13.6116 20.4681 13.4293 19.9689C13.3919 19.8672 13.3919 19.8302 13.3825 19.368C13.3779 18.9104 13.3779 18.8688 13.4106 18.7671C13.476 18.5359 13.6584 18.3557 13.8921 18.2956C13.9716 18.2725 14.182 18.2725 15.2853 18.2725L16.585 18.2771L16.7299 18.3464C16.9029 18.4296 16.9823 18.4897 17.0805 18.6191C17.1927 18.7671 17.2254 18.8826 17.2254 19.1646C17.2254 19.5668 17.1974 19.9134 17.1553 20.0521C17.0945 20.2416 17.001 20.4219 16.8842 20.5837C16.6504 20.8795 16.225 21.1754 15.8369 21.3094L15.7247 21.351L15.7294 21.8364L15.7341 22.3218L15.8369 22.331L15.9398 22.3403L16.0801 22.5483L16.2156 22.7563H16.8421C17.188 22.7563 17.4919 22.7609 17.52 22.7655C17.5667 22.7748 17.5761 22.7702 17.6228 22.6916L17.6789 22.6084H18.2166C18.6186 22.5899 18.7402 22.5991 18.7402 22.613Z" fill="black"/>
<path d="M16.272 23.9398C16.1832 23.9906 16.1224 24.0137 16.1084 24.0045C16.0944 23.9999 16.0289 23.9444 15.9588 23.8936L15.8326 23.7919L15.7017 23.9305C15.4165 24.2356 15.4071 24.2495 15.323 24.2541C15.1921 24.268 15.164 24.2449 15.0051 24.0091C14.9209 23.8889 14.8555 23.7872 14.8555 23.7872C14.8555 23.7872 14.7947 23.778 14.7246 23.7734L14.5937 23.7595L14.5329 23.8843L14.4721 24.0091L14.3646 23.9768C14.2804 23.949 14.1963 23.9167 14.1168 23.8797L13.9766 23.8104V23.5469L15.2201 23.5515L16.4637 23.5561L16.4684 23.6809C16.4731 23.8288 16.4777 23.8242 16.272 23.9398Z" fill="black"/>
<path d="M27.9596 18.3001C27.9549 18.2816 27.9549 18.2493 27.9502 18.1984C26.8282 18.0782 23.6258 18.0043 20.6524 20.4311C20.6524 20.4311 19.694 16.0859 15.2059 16.0859C10.7179 16.0859 9.05353 20.4311 9.05353 20.4311C6.53833 17.7547 3.17227 17.9488 1.95675 18.1245C1.95675 18.1522 1.95208 18.1846 1.95208 18.2123C1.91467 18.8825 1.93338 19.2015 2.04558 19.6221C2.39621 20.9396 3.47615 22.391 5.16853 23.8148C7.94086 26.1445 11.6996 27.8271 14.5467 28.0212C17.5154 28.22 21.896 26.505 24.8132 23.9997C25.2714 23.5975 25.7015 23.1722 26.1035 22.7192C26.3934 22.3864 26.8235 21.8132 26.7908 21.8132C26.7814 21.8132 26.7908 21.804 26.8095 21.7947C26.8235 21.7855 26.8375 21.7716 26.8282 21.7624C26.8235 21.7577 26.8329 21.7439 26.8469 21.7392C26.8609 21.7346 26.8703 21.7254 26.8656 21.7161C26.8609 21.7069 26.8656 21.6976 26.8843 21.693C26.8983 21.6884 26.903 21.6745 26.8983 21.6653C26.8936 21.656 26.8983 21.6468 26.9077 21.6468C26.917 21.6468 26.9264 21.6329 26.9264 21.6237C26.9264 21.6144 26.9357 21.6006 26.9451 21.6006C26.9544 21.6006 26.9638 21.5913 26.9638 21.5821C26.9778 21.5451 27.0012 21.5081 27.0245 21.4758C27.0947 21.3694 27.3752 20.8748 27.4126 20.7916C27.679 20.1953 27.8474 19.6638 27.9268 19.1322C27.9549 18.8779 27.9783 18.4111 27.9596 18.3001ZM16.2719 23.9396C16.183 23.9904 16.1222 24.0135 16.1082 24.0043C16.0942 23.9996 16.0287 23.9442 15.9586 23.8933L15.8324 23.7916L15.7015 23.9303C15.4163 24.2354 15.407 24.2493 15.3228 24.2539C15.1919 24.2678 15.1639 24.2446 15.0049 24.0089C14.9208 23.8887 14.8553 23.787 14.8553 23.787C14.8553 23.787 14.7945 23.7778 14.7244 23.7731L14.5935 23.7593L14.5327 23.8841L14.4719 24.0089L14.3644 23.9765C14.2803 23.9488 14.1961 23.9164 14.1166 23.8795L13.9764 23.8101V23.5466L15.22 23.5513L16.4635 23.5559L16.4682 23.6807C16.4729 23.8286 16.4776 23.824 16.2719 23.9396ZM18.6094 23.1075C18.5393 23.371 18.4832 23.5836 18.4832 23.5929C18.4317 23.5975 18.385 23.6021 18.3336 23.5975H18.184L17.9829 24.0829C17.8707 24.3463 17.7679 24.5913 17.7539 24.6283L17.7258 24.693L17.6276 24.5359L17.5295 24.3787V23.0983L17.492 23.1075C17.4126 23.126 16.8469 23.2 16.5991 23.2231C15.5753 23.3248 14.5467 23.3017 13.5276 23.1584C13.3639 23.1352 13.2237 23.1168 13.219 23.1214C13.2143 23.126 13.219 23.4218 13.2284 23.787L13.2424 24.4434L13.1629 24.5636C13.1208 24.6283 13.0788 24.6838 13.0788 24.6884C13.0647 24.7023 13.018 24.6283 12.9105 24.4157C12.7936 24.1938 12.7094 23.958 12.6487 23.7131L12.6159 23.579L12.471 23.5882L12.3261 23.6021L12.2887 23.4311C12.27 23.3386 12.2466 23.1953 12.2373 23.1168L12.2232 22.9688L12.1017 22.8625C12.0316 22.8024 11.9614 22.7423 11.9474 22.7331C11.924 22.7146 11.9147 22.6822 11.9147 22.6545V22.599L12.4991 22.6037L13.0834 22.6083L13.1021 22.6684L13.1208 22.7285L13.3219 22.7377C13.4341 22.7423 13.7894 22.7516 14.1073 22.7608L14.6917 22.7747L14.8413 22.5436L14.9956 22.3124H15.1919L15.1872 21.8317L15.1826 21.351L14.9254 21.24C14.0979 20.8795 13.6117 20.4681 13.4294 19.9688C13.392 19.8671 13.392 19.8302 13.3827 19.3679C13.378 18.9103 13.378 18.8687 13.4107 18.767C13.4762 18.5359 13.6585 18.3556 13.8922 18.2955C13.9717 18.2724 14.1821 18.2724 15.2854 18.2724L16.5851 18.277L16.73 18.3463C16.903 18.4295 16.9825 18.4896 17.0806 18.6191C17.1928 18.767 17.2256 18.8825 17.2256 19.1645C17.2256 19.5667 17.1975 19.9134 17.1554 20.052C17.0947 20.2416 17.0012 20.4218 16.8843 20.5836C16.6505 20.8795 16.2251 21.1753 15.8371 21.3094L15.7249 21.351L15.7295 21.8363L15.7342 22.3217L15.8371 22.3309L15.9399 22.3402L16.0802 22.5482L16.2157 22.7562H16.8422C17.1882 22.7562 17.492 22.7608 17.5201 22.7654C17.5668 22.7747 17.5762 22.7701 17.623 22.6915L17.6791 22.6083H18.2167C18.6328 22.6083 18.7543 22.6129 18.7543 22.6268C18.7403 22.6221 18.6795 22.8487 18.6094 23.1075Z" fill="white"/>
<path d="M27.922 17.8287C27.9127 17.6207 27.894 17.3295 27.8799 17.1862C27.6789 15.0876 27.1366 13.3727 26.1081 11.556C26.066 11.4867 26.0286 11.4173 26.0052 11.3619C25.9959 11.348 25.9912 11.3341 25.9865 11.3249C26.1315 10.895 26.7252 9.09685 27.1974 7.03984C27.8379 4.24785 28.2446 0.984369 27.001 0.00439931C27.001 0.00439931 24.8505 -0.152766 21.9706 2.63922C21.1899 3.41118 20.4746 4.24785 19.8388 5.13999L19.6378 5.07528C18.4784 4.70085 17.2769 4.46973 16.066 4.39115C15.7014 4.36341 14.3409 4.36341 13.8968 4.39115C12.555 4.47898 11.5265 4.67774 10.3577 5.0799C10.311 5.09839 10.2689 5.11226 10.2268 5.12612C9.56765 4.23861 8.83366 3.40656 8.02487 2.64384C5.02814 -0.16201 2.79813 -0.00022347 2.79813 -0.00022347C1.47976 1.0121 1.92857 4.42351 2.61113 7.30794C3.05994 9.21703 3.61159 10.895 3.8173 11.5005C3.80327 11.5329 3.78457 11.5699 3.76587 11.6022C2.67658 13.7841 2.08752 15.8873 1.94727 18.1246C3.16746 17.9489 6.52885 17.7502 9.04872 20.4312C9.04872 20.4312 10.713 16.0861 15.2011 16.0861C19.6892 16.0861 20.6476 20.4312 20.6476 20.4312C23.6209 18.0044 26.8234 18.083 27.9454 18.1985C27.9407 18.1061 27.9314 17.9674 27.922 17.8287ZM4.70089 9.75787C4.70089 9.75787 2.95241 5.43583 3.40121 2.96742C3.47602 2.55139 3.61627 2.18622 3.836 1.90887C3.836 1.90887 5.81823 2.10301 9.01599 5.61611C9.01599 5.61611 8.40823 5.90733 7.59477 6.52674C7.59477 6.52674 7.59009 6.53136 7.58541 6.53136C6.70182 7.20163 5.57046 8.2648 4.70089 9.75787ZM12.1202 16.1785C12.0922 16.234 11.9519 16.2941 11.793 16.3172C11.634 16.3403 11.1478 16.3264 10.872 16.2941C9.88088 16.1646 8.82899 15.8642 8.06227 15.4944C7.63217 15.2864 7.32361 15.0784 7.09453 14.8519L6.96363 14.7178L6.9496 14.5421C6.92623 14.2371 6.9309 13.7563 6.9683 13.5853C6.99168 13.442 7.0431 13.3033 7.11323 13.1785C7.15063 13.1323 7.15063 13.1323 7.31894 13.1323C7.52464 13.1323 7.69762 13.1646 7.97812 13.2525C8.55316 13.4281 9.4087 13.8534 10.4512 14.4728C11.3115 14.9813 11.634 15.2309 11.8818 15.573C12.0501 15.7856 12.1623 16.0861 12.1202 16.1785ZM23.1347 14.6485C23.1207 14.7224 22.901 14.9443 22.6813 15.1061C22.0361 15.573 20.8813 16.0075 19.7079 16.2155C19.0394 16.3357 18.3708 16.3542 18.1698 16.2571C18.0389 16.1924 18.0202 16.1415 18.0669 15.9751C18.1651 15.6284 18.483 15.2494 18.9786 14.8935C19.231 14.7132 20.2549 14.0984 20.7317 13.8395C21.5172 13.4143 22.153 13.16 22.5831 13.0999C22.7187 13.0814 22.8823 13.0768 22.9337 13.0999C23.0179 13.1323 23.1114 13.3773 23.1488 13.6731C23.1675 13.8303 23.1581 14.5237 23.1347 14.6485ZM22.3587 6.52674L22.3493 6.52212C21.5639 5.9027 20.9748 5.61149 20.9748 5.61149C24.0651 2.09839 25.9772 1.90425 25.9772 1.90425C26.1876 2.18622 26.3231 2.54677 26.3979 2.9628C26.8327 5.43121 25.145 9.75787 25.145 9.75787C24.4391 8.51441 23.49 7.41426 22.3587 6.52674Z" fill="#FFA409"/>
<path d="M26.4029 2.96285C26.0382 2.91662 24.3131 2.90738 22.3589 6.52679L22.3496 6.52217C21.5642 5.90276 20.9751 5.61154 20.9751 5.61154C24.0653 2.09844 25.9774 1.9043 25.9774 1.9043C26.1925 2.18627 26.3281 2.54682 26.4029 2.96285Z" fill="#FF9300"/>
<path d="M25.1499 9.75786C24.4393 8.50979 23.4949 7.41426 22.3589 6.52674C24.3131 2.90733 26.0335 2.91657 26.4028 2.9628C26.8376 5.43583 25.1499 9.75786 25.1499 9.75786Z" fill="#FF8300"/>
<path d="M26.473 2.97676C26.4496 2.97214 26.4262 2.96751 26.4028 2.96289L26.473 2.97676Z" fill="#FF8300"/>
<path d="M9.01642 5.61154C9.01642 5.61154 8.40866 5.90276 7.5952 6.52217C7.5952 6.52217 7.59052 6.52679 7.58584 6.52679C5.56153 2.90276 3.78033 2.91662 3.39697 2.96285C3.47177 2.54682 3.61203 2.18165 3.83176 1.9043C3.83643 1.9043 5.81866 2.09844 9.01642 5.61154Z" fill="#FF9300"/>
<path d="M7.59018 6.52674C6.70191 7.20162 5.57055 8.26018 4.70098 9.75786C4.70098 9.75786 2.9525 5.43583 3.40131 2.9628C3.77999 2.91657 5.56587 2.90733 7.59018 6.52674Z" fill="#FF8300"/>
<path d="M3.40146 2.96289C3.37808 2.96751 3.35004 2.97214 3.32666 2.97676L3.40146 2.96289Z" fill="#FF8300"/>
<path d="M20.4185 12.1571C20.4185 12.1571 18.9224 12.2496 19.1094 11.0939C19.2964 9.93832 20.4652 9.79964 20.7925 9.84587C21.1197 9.89209 22.4287 10.3543 22.195 11.3251C21.9612 12.2958 21.634 12.1109 21.447 12.1571C21.26 12.2033 20.4185 12.1571 20.4185 12.1571Z" fill="white"/>
<path d="M9.38526 12.1571C9.38526 12.1571 7.88923 12.2496 8.07624 11.0939C8.26324 9.93832 9.43201 9.79964 9.75926 9.84587C10.0865 9.89209 11.3955 10.3543 11.1618 11.3251C10.928 12.2958 10.6008 12.1109 10.4138 12.1571C10.2268 12.2033 9.38526 12.1571 9.38526 12.1571Z" fill="white"/>
</g>
<defs>
<clipPath id="clip0_930_13">
<rect width="30" height="30" fill="white"/>
</clipPath>
</defs>
</svg>
