<svg width="32" height="32" viewBox="0 0 32 32" fill="none" xmlns="http://www.w3.org/2000/svg">
<path d="M6.28994 8.71019C6.19621 8.61722 6.12182 8.50662 6.07105 8.38476C6.02028 8.2629 5.99414 8.1322 5.99414 8.00019C5.99414 7.86817 6.02028 7.73747 6.07105 7.61561C6.12182 7.49375 6.19621 7.38315 6.28994 7.29019L10.2899 3.29019C10.3832 3.19695 10.4939 3.12299 10.6157 3.07253C10.7375 3.02207 10.8681 2.99609 10.9999 2.99609C11.1318 2.99609 11.2624 3.02207 11.3842 3.07253C11.506 3.12299 11.6167 3.19695 11.7099 3.29019C11.8032 3.38342 11.8771 3.49411 11.9276 3.61594C11.9781 3.73776 12.004 3.86833 12.004 4.00019C12.004 4.13204 11.9781 4.26261 11.9276 4.38443C11.8771 4.50626 11.8032 4.61695 11.7099 4.71019L9.40994 7.00019H18.9999C20.8565 7.00019 22.6369 7.73768 23.9497 9.05044C25.2624 10.3632 25.9999 12.1437 25.9999 14.0002C25.9999 14.2654 25.8946 14.5198 25.707 14.7073C25.5195 14.8948 25.2652 15.0002 24.9999 15.0002C24.7347 15.0002 24.4804 14.8948 24.2928 14.7073C24.1053 14.5198 23.9999 14.2654 23.9999 14.0002C23.9999 13.3436 23.8706 12.6934 23.6193 12.0868C23.3681 11.4801 22.9998 10.9289 22.5355 10.4647C22.0712 10.0004 21.52 9.63206 20.9134 9.38079C20.3067 9.12951 19.6565 9.00019 18.9999 9.00019H9.40994L11.7099 11.2902C11.8037 11.3831 11.8781 11.4937 11.9288 11.6156C11.9796 11.7375 12.0057 11.8682 12.0057 12.0002C12.0057 12.1322 11.9796 12.2629 11.9288 12.3848C11.8781 12.5066 11.8037 12.6172 11.7099 12.7102C11.617 12.8039 11.5064 12.8783 11.3845 12.9291C11.2627 12.9798 11.132 13.006 10.9999 13.006C10.8679 13.006 10.7372 12.9798 10.6154 12.9291C10.4935 12.8783 10.3829 12.8039 10.2899 12.7102L6.28994 8.71019ZM21.7099 19.2902C21.5216 19.1019 21.2662 18.9961 20.9999 18.9961C20.7336 18.9961 20.4782 19.1019 20.2899 19.2902C20.1016 19.4785 19.9958 19.7339 19.9958 20.0002C19.9958 20.2665 20.1016 20.5219 20.2899 20.7102L22.5899 23.0002H12.9999C11.6739 23.0002 10.4021 22.4734 9.46441 21.5357C8.52672 20.598 7.99994 19.3263 7.99994 18.0002C7.99994 17.735 7.89458 17.4806 7.70705 17.2931C7.51951 17.1055 7.26516 17.0002 6.99994 17.0002C6.73472 17.0002 6.48037 17.1055 6.29283 17.2931C6.1053 17.4806 5.99994 17.735 5.99994 18.0002C5.99994 19.8567 6.73744 21.6372 8.05019 22.9499C9.36295 24.2627 11.1434 25.0002 12.9999 25.0002H22.5899L20.2899 27.2902C20.1962 27.3831 20.1218 27.4937 20.071 27.6156C20.0203 27.7375 19.9941 27.8682 19.9941 28.0002C19.9941 28.1322 20.0203 28.2629 20.071 28.3848C20.1218 28.5066 20.1962 28.6172 20.2899 28.7102C20.3829 28.8039 20.4935 28.8783 20.6154 28.9291C20.7372 28.9798 20.8679 29.006 20.9999 29.006C21.132 29.006 21.2627 28.9798 21.3845 28.9291C21.5064 28.8783 21.617 28.8039 21.7099 28.7102L25.7099 24.7102C25.8037 24.6172 25.8781 24.5066 25.9288 24.3848C25.9796 24.2629 26.0057 24.1322 26.0057 24.0002C26.0057 23.8682 25.9796 23.7375 25.9288 23.6156C25.8781 23.4937 25.8037 23.3831 25.7099 23.2902L21.7099 19.2902Z" fill="white"/>
</svg>
