<svg width="30" height="30" viewBox="0 0 30 30" fill="none" xmlns="http://www.w3.org/2000/svg">
<g clip-path="url(#clip0_383_31)">
<circle cx="15" cy="15" r="12" fill="white"/>
<mask id="mask0_383_31" style="mask-type:alpha" maskUnits="userSpaceOnUse" x="0" y="0" width="30" height="30">
<circle cx="15" cy="15" r="15" fill="white"/>
</mask>
<g mask="url(#mask0_383_31)">
<path fill-rule="evenodd" clip-rule="evenodd" d="M1.00918 5.1156C-0.0120239 7.122 -0.0120239 9.7524 -0.0120239 15C-0.0120239 20.2608 -0.0120239 22.878 1.00918 24.8844C1.91038 26.6496 3.35158 28.0788 5.10478 28.98C7.10998 30 9.74038 30 14.988 30C20.2488 30 22.866 30 24.8724 28.9788C26.6376 28.0776 28.0668 26.6364 28.968 24.8832C29.9892 22.878 29.9892 20.2476 29.9892 14.9988C29.9892 9.738 29.9892 7.1208 28.968 5.1144C28.0668 3.3492 26.6256 1.92 24.8724 1.0188C22.866 0 20.2356 0 14.988 0C9.72718 0 7.10998 0 5.10358 1.0212C3.33838 1.9212 1.90918 3.3624 1.00918 5.1156ZM22.494 8.094C22.758 8.094 23.01 8.202 23.19 8.382C23.37 8.574 23.478 8.826 23.466 9.078C23.418 11.8764 23.31 14.0136 23.106 15.7068C22.914 17.4 22.614 18.6612 22.1688 19.6704C21.8688 20.3544 21.4968 20.9196 21.0636 21.3876C20.4756 22.0236 19.8024 22.4808 19.0704 22.9128C18.7584 23.1048 18.4344 23.2848 18.0852 23.4768C17.3532 23.8848 16.56 24.342 15.6468 24.954C15.3228 25.17 14.8896 25.17 14.5656 24.954C13.6404 24.342 12.8364 23.8848 12.1032 23.4648C11.9352 23.3688 11.7792 23.2848 11.6232 23.1888C10.77 22.6968 9.98998 22.2156 9.31678 21.5316C8.86078 21.0756 8.47558 20.5344 8.16358 19.8744C7.74358 18.9972 7.45558 17.9412 7.23838 16.584C6.96238 14.7588 6.81838 12.3684 6.77038 9.054C6.77038 8.802 6.86638 8.538 7.04638 8.358C7.22638 8.178 7.47838 8.07 7.74238 8.07H8.15038C9.39958 8.07 12.138 7.95 14.5152 6.1008C14.8632 5.8248 15.3564 5.8248 15.7164 6.1008C18.0948 7.95 20.832 8.07 22.0812 8.07H22.4892V8.094H22.494ZM20.3088 19.0596C20.6088 18.4356 20.8728 17.5584 21.066 16.3092C21.294 14.82 21.438 12.7908 21.498 10.0284C20.0328 9.9804 17.5224 9.7044 15.1212 8.0952C12.7188 9.7044 10.2096 9.9804 8.75638 10.0284C8.80438 12.3108 8.91238 14.088 9.08038 15.4812C9.27238 17.0664 9.53638 18.1356 9.87358 18.8916C10.0896 19.3956 10.3416 19.7568 10.6308 20.0688C11.0148 20.5008 11.508 20.85 12.18 21.246C12.456 21.414 12.768 21.582 13.1052 21.774C13.7052 22.11 14.3784 22.494 15.1464 22.9752C15.8904 22.4952 16.5636 22.122 17.1516 21.786C17.3316 21.69 17.4996 21.594 17.6556 21.498C18.4848 21.03 19.0968 20.6328 19.5408 20.1648C19.8408 19.8528 20.0928 19.5048 20.322 19.0356L20.3088 19.0596Z" fill="#3375BB"/>
</g>
</g>
<defs>
<clipPath id="clip0_383_31">
<rect width="30" height="30" fill="white"/>
</clipPath>
</defs>
</svg>
