<svg width="30" height="30" viewBox="0 0 30 30" fill="none" xmlns="http://www.w3.org/2000/svg">
<g clip-path="url(#clip0_384_2)">
<path d="M15 30C23.2843 30 30 23.2843 30 15C30 6.71573 23.2843 0 15 0C6.71573 0 0 6.71573 0 15C0 23.2843 6.71573 30 15 30Z" fill="#FF007A"/>
<path d="M11.4947 5.40657C11.2275 5.36532 11.2162 5.35969 11.3419 5.34094C11.5828 5.30344 12.1528 5.35501 12.5456 5.44782C13.4616 5.66626 14.295 6.22407 15.1856 7.21501L15.4219 7.47751L15.7594 7.42407C17.1844 7.19438 18.6347 7.37719 19.8469 7.93688C20.1806 8.09063 20.7066 8.39719 20.7722 8.47688C20.7937 8.50126 20.8322 8.66344 20.8575 8.83594C20.9475 9.43313 20.9025 9.89063 20.7206 10.2328C20.6212 10.4184 20.6156 10.4766 20.6822 10.6359C20.7138 10.7018 20.7632 10.7574 20.8249 10.7965C20.8865 10.8356 20.9579 10.8567 21.0309 10.8572C21.3328 10.8572 21.6572 10.3697 21.8072 9.69188L21.8672 9.42282L21.9853 9.55688C22.6341 10.2919 23.1431 11.2941 23.2303 12.0066L23.2537 12.1931L23.1441 12.0244C22.9566 11.7338 22.7691 11.535 22.5272 11.3747C22.0922 11.0869 21.6319 10.9894 20.4131 10.9247C19.3125 10.8666 18.6891 10.7728 18.0722 10.5713C17.0212 10.2291 16.4916 9.77251 15.2428 8.13469C14.6887 7.40719 14.3456 7.00501 14.0053 6.68157C13.23 5.94469 12.4687 5.55844 11.4947 5.40657Z" fill="white"/>
<path d="M21.0205 7.03117C21.0487 6.54367 21.1143 6.22211 21.2474 5.92867C21.2999 5.81242 21.3496 5.7168 21.3571 5.7168C21.3487 5.78261 21.3314 5.84696 21.3055 5.90805C21.209 6.19305 21.193 6.58305 21.2596 7.03586C21.344 7.61148 21.3927 7.69398 22.0002 8.31555C22.2862 8.60711 22.618 8.97461 22.738 9.13305L22.9565 9.41992L22.738 9.21461C22.4709 8.9643 21.8559 8.47398 21.7199 8.40461C21.629 8.35773 21.6149 8.35867 21.5587 8.41398C21.5071 8.46648 21.4959 8.54336 21.4893 8.90992C21.478 9.47992 21.4002 9.84742 21.2118 10.213C21.1105 10.4099 21.0946 10.3687 21.1865 10.1446C21.2549 9.97773 21.2615 9.90461 21.2615 9.35242C21.2615 8.24242 21.1293 7.97617 20.3559 7.51867C20.1231 7.38363 19.8841 7.25974 19.6396 7.14742C19.5188 7.09897 19.4016 7.04195 19.289 6.9768C19.3105 6.95523 20.0643 7.17461 20.3671 7.2918C20.819 7.46523 20.893 7.48773 20.9484 7.46617C20.9849 7.45211 21.0027 7.34523 21.0205 7.03117ZM12.014 8.92961C11.4712 8.18242 11.1355 7.03586 11.2077 6.17898L11.2302 5.91367L11.354 5.93617C11.5865 5.97836 11.9868 6.12742 12.1743 6.2418C12.688 6.55398 12.9112 6.96555 13.1371 8.02117C13.2037 8.33055 13.2909 8.68023 13.3312 8.7993C13.3949 8.98961 13.6387 9.43492 13.8374 9.72461C13.9799 9.93273 13.8843 10.0312 13.5693 10.003C13.0874 9.95898 12.4349 9.50898 12.014 8.92961ZM20.3624 14.4937C17.8246 13.4718 16.9312 12.5849 16.9312 11.0887C16.9312 10.8684 16.9387 10.6884 16.9471 10.6884C16.9565 10.6884 17.0549 10.7605 17.1655 10.8496C17.6802 11.2621 18.2568 11.4384 19.8515 11.6709C20.7899 11.8087 21.3187 11.9193 21.8062 12.0805C23.3549 12.5943 24.313 13.6368 24.5418 15.0562C24.6074 15.4687 24.569 16.2421 24.4612 16.6499C24.3768 16.9724 24.1171 17.5527 24.0487 17.5752C24.0299 17.5809 24.0112 17.5087 24.0055 17.4084C23.9793 16.8759 23.7102 16.3565 23.2574 15.9674C22.7427 15.5259 22.0527 15.1734 20.3624 14.4937ZM18.5812 14.9174C18.5512 14.7363 18.5102 14.5573 18.4584 14.3812L18.3927 14.188L18.5137 14.323C18.6796 14.5105 18.8118 14.7487 18.9224 15.0674C19.0077 15.3102 19.0171 15.3824 19.0162 15.7771C19.0162 16.1652 19.0059 16.2459 18.9271 16.4652C18.8176 16.7869 18.6343 17.0784 18.3918 17.3165C17.9277 17.789 17.3324 18.0496 16.4718 18.1584C16.3218 18.1771 15.8868 18.209 15.5034 18.2287C14.5377 18.2793 13.903 18.3824 13.3321 18.583C13.2806 18.6061 13.2253 18.6195 13.169 18.6224C13.1465 18.599 13.5346 18.3674 13.8562 18.2127C14.309 17.9943 14.759 17.8752 15.7687 17.7074C16.2674 17.624 16.783 17.5237 16.9134 17.4834C18.149 17.1046 18.7846 16.1277 18.5812 14.9174Z" fill="white"/>
<path d="M19.7438 16.9836C19.4063 16.2589 19.3294 15.5586 19.5141 14.9061C19.5338 14.8367 19.5656 14.7795 19.5844 14.7795C19.6478 14.8025 19.7075 14.8347 19.7616 14.8752C19.9172 14.9802 20.2284 15.1564 21.0581 15.6083C22.0941 16.1736 22.6847 16.6114 23.0869 17.1102C23.4384 17.548 23.6559 18.0467 23.7609 18.6542C23.82 18.9983 23.7853 19.8261 23.6972 20.173C23.4188 21.2661 22.7709 22.1249 21.8484 22.6255C21.7614 22.6758 21.6712 22.7206 21.5784 22.7595C21.5653 22.7595 21.6141 22.6349 21.6881 22.4811C21.9975 21.8324 22.0341 21.2005 21.7988 20.4974C21.6553 20.067 21.3619 19.5411 20.7703 18.6542C20.0822 17.623 19.9134 17.3474 19.7438 16.9836ZM10.2122 20.8939C11.1544 20.0989 12.3253 19.5345 13.3931 19.3611C13.8525 19.2861 14.6194 19.3161 15.045 19.4249C15.7275 19.5992 16.3388 19.9911 16.6566 20.457C16.9659 20.9127 17.1 21.3102 17.2378 22.1933C17.2941 22.542 17.3531 22.8917 17.3709 22.9714C17.4741 23.4289 17.6775 23.7955 17.9288 23.9792C18.3272 24.2708 19.0144 24.2886 19.6894 24.0261C19.7599 23.9937 19.8343 23.9704 19.9106 23.9567C19.935 23.9811 19.5956 24.2089 19.3556 24.3289C19.0724 24.4805 18.7552 24.5573 18.4341 24.552C17.8153 24.552 17.3016 24.238 16.8731 23.5958C16.7888 23.4692 16.5994 23.0914 16.4513 22.7549C15.9994 21.7236 15.7763 21.4086 15.2513 21.0645C14.7928 20.7645 14.2031 20.7111 13.7597 20.9286C13.1766 21.2145 13.0144 21.9599 13.4316 22.4314C13.5975 22.6189 13.9069 22.7811 14.16 22.812C14.2704 22.8267 14.3827 22.8174 14.4892 22.7849C14.5958 22.7524 14.6941 22.6974 14.7776 22.6237C14.861 22.5499 14.9277 22.4591 14.973 22.3573C15.0183 22.2556 15.0413 22.1453 15.0403 22.0339C15.0403 21.7227 14.9203 21.5464 14.6203 21.4105C14.2106 21.2258 13.77 21.4414 13.7719 21.8267C13.7728 21.9908 13.8441 22.0939 14.0091 22.1689C14.115 22.2158 14.1169 22.2205 14.0306 22.2027C13.6547 22.1239 13.5666 21.6711 13.8694 21.3702C14.2322 21.0083 14.9831 21.1677 15.2409 21.6608C15.3497 21.868 15.3619 22.2814 15.2672 22.5308C15.0563 23.0886 14.4394 23.3811 13.8141 23.2217C13.3884 23.113 13.215 22.9958 12.7022 22.467C11.8106 21.5483 11.4647 21.3702 10.1784 21.1695L9.93188 21.1311L10.2131 20.8939H10.2122Z" fill="white"/>
<path fill-rule="evenodd" clip-rule="evenodd" d="M5.80872 3.14057L5.89872 3.25025C9.37497 7.5065 11.1712 9.71525 11.2856 9.87275C11.4731 10.1334 11.4028 10.3668 11.0803 10.5506C10.9012 10.6528 10.5318 10.7559 10.3481 10.7559C10.139 10.7559 9.90372 10.6556 9.73215 10.4934C9.61122 10.3781 9.12278 9.64869 7.99497 7.89838C7.46683 7.07113 6.93181 6.24828 6.38997 5.42994C6.34403 5.38682 6.34497 5.38775 7.90684 8.18244C8.88747 9.93744 9.21934 10.5571 9.21934 10.6406C9.21934 10.8093 9.17247 10.8974 8.96434 11.1299C8.61747 11.5171 8.46278 11.9521 8.35028 12.8521C8.22465 13.8618 7.87215 14.5743 6.8934 15.794C6.32153 16.5084 6.22778 16.6396 6.08247 16.9274C5.90059 17.2893 5.8509 17.4928 5.83028 17.9503C5.80872 18.434 5.8509 18.7471 5.99903 19.2093C6.1284 19.6143 6.2634 19.8824 6.6084 20.4168C6.90653 20.879 7.07809 21.2221 7.07809 21.3562C7.07809 21.4631 7.09872 21.4631 7.5609 21.359C8.66622 21.1096 9.5634 20.6699 10.0687 20.1318C10.3809 19.799 10.454 19.6153 10.4568 19.1587C10.4578 18.8606 10.4475 18.7978 10.3668 18.6262C10.2356 18.3468 9.99653 18.1143 9.46965 17.7543C8.77872 17.2818 8.48434 16.9012 8.40278 16.379C8.33528 15.9506 8.41309 15.6478 8.79559 14.8471C9.19028 14.0184 9.28872 13.6659 9.35528 12.8306C9.39747 12.2906 9.45653 12.0778 9.61215 11.9071C9.7734 11.729 9.91965 11.6681 10.32 11.6137C10.9725 11.5246 11.3878 11.3559 11.729 11.0418C12.0253 10.7681 12.149 10.5046 12.1678 10.109L12.1828 9.809L12.0168 9.61588C11.7787 9.33838 9.80903 7.16525 6.10684 3.09463L6.00747 2.98682L5.80872 3.1415V3.14057ZM7.41559 18.4987C7.481 18.3829 7.50053 18.2467 7.47032 18.1172C7.44011 17.9877 7.36236 17.8742 7.25247 17.7993C7.03872 17.6568 6.7059 17.7243 6.7059 17.9099C6.7059 17.9662 6.73684 18.0074 6.80715 18.044C6.92622 18.1049 6.93465 18.1743 6.84184 18.314C6.74715 18.4565 6.75465 18.5821 6.8634 18.6674C7.03778 18.8043 7.28434 18.7284 7.41559 18.4987ZM12.5943 11.7712C12.2878 11.8649 11.9906 12.1903 11.8978 12.5306C11.8415 12.7378 11.8734 13.1024 11.9578 13.2149C12.0937 13.3968 12.2259 13.4446 12.5822 13.4418C13.2797 13.4371 13.8853 13.1381 13.9565 12.764C14.0147 12.4574 13.7475 12.0328 13.3809 11.8453C13.1915 11.7496 12.7893 11.7112 12.5943 11.7712ZM13.41 12.4087C13.5178 12.2559 13.47 12.0899 13.2881 11.9793C12.9393 11.7665 12.4125 11.9418 12.4125 12.2718C12.4125 12.4349 12.6872 12.614 12.9384 12.614C13.1072 12.614 13.3359 12.5137 13.41 12.4087Z" fill="white"/>
</g>
<defs>
<clipPath id="clip0_384_2">
<rect width="30" height="30" fill="white"/>
</clipPath>
</defs>
</svg>
