<svg width="30" height="30" viewBox="0 0 30 30" fill="none" xmlns="http://www.w3.org/2000/svg">
<g clip-path="url(#clip0_609_22)">
<path d="M15 30C23.3125 30 30 23.3125 30 15C30 6.68745 23.3125 0 15 0C6.68745 0 0 6.68745 0 15C0 23.3125 6.68745 30 15 30Z" fill="#2775CA"/>
<path d="M19.1239 17.375C19.1239 15.1875 17.8114 14.4376 15.1864 14.1251C13.3114 13.8751 12.9364 13.3751 12.9364 12.5C12.9364 11.6249 13.5615 11.0625 14.8114 11.0625C15.9364 11.0625 16.5615 11.4376 16.8739 12.3751C16.9365 12.5626 17.124 12.6875 17.3115 12.6875H18.3114C18.5614 12.6875 18.7489 12.5 18.7489 12.2501V12.1876C18.4989 10.8125 17.3739 9.75005 15.9364 9.6251V8.1251C15.9364 7.87505 15.7489 7.68755 15.4365 7.625H14.499C14.2489 7.625 14.0614 7.8125 13.9989 8.1251V9.56255C12.1239 9.8126 10.9365 11.0625 10.9365 12.6251C10.9365 14.6876 12.1865 15.5 14.8114 15.8126C16.5615 16.1251 17.124 16.5001 17.124 17.5001C17.124 18.5002 16.2489 19.1876 15.0615 19.1876C13.4364 19.1876 12.8739 18.5 12.6864 17.5625C12.624 17.3126 12.4365 17.1875 12.249 17.1875H11.1864C10.9365 17.1875 10.749 17.375 10.749 17.625V17.6876C10.9989 19.25 11.999 20.375 14.0614 20.6876V22.1876C14.0614 22.4375 14.2489 22.625 14.5614 22.6876H15.4989C15.7489 22.6876 15.9364 22.5001 15.999 22.1876V20.6876C17.874 20.375 19.1239 19.0625 19.1239 17.375Z" fill="white"/>
<path d="M11.8137 23.9375C6.93872 22.1876 4.43867 16.7501 6.25127 11.9374C7.18877 9.31243 9.25127 7.31246 11.8137 6.37497C12.0638 6.25002 12.1887 6.06251 12.1887 5.74991V4.87495C12.1887 4.6249 12.0638 4.4374 11.8137 4.375C11.7512 4.375 11.6262 4.375 11.5637 4.4374C5.62622 6.31242 2.37617 12.6251 4.25117 18.5626C5.37617 22.0625 8.06372 24.7501 11.5637 25.8751C11.8137 26 12.0638 25.8751 12.1262 25.625C12.1887 25.5626 12.1887 25.5001 12.1887 25.3751V24.5C12.1887 24.3125 12.0012 24.0626 11.8137 23.9375ZM18.4388 4.4374C18.1887 4.31245 17.9387 4.4374 17.8763 4.68745C17.8137 4.75 17.8137 4.8124 17.8137 4.9375V5.81247C17.8137 6.06252 18.0012 6.31241 18.1887 6.43751C23.0637 8.18743 25.5638 13.625 23.7512 18.4376C22.8137 21.0626 20.7512 23.0626 18.1887 24.0001C17.9387 24.125 17.8137 24.3125 17.8137 24.6251V25.5001C17.8137 25.7501 17.9387 25.9376 18.1887 26C18.2513 26 18.3762 26 18.4388 25.9376C24.3762 24.0626 27.6263 17.75 25.7513 11.8125C24.6263 8.24998 21.8762 5.56242 18.4388 4.4374Z" fill="white"/>
</g>
<defs>
<clipPath id="clip0_609_22">
<rect width="30" height="30" fill="white"/>
</clipPath>
</defs>
</svg>
