<svg width="30" height="30" viewBox="0 0 30 30" fill="none" xmlns="http://www.w3.org/2000/svg">
<g clip-path="url(#clip0_609_26)">
<path d="M15 0C23.2839 0 30 6.7161 30 15C30 23.2839 23.2836 30 15 30C6.7164 30 0 23.2857 0 15C0 6.7143 6.7152 0 15 0Z" fill="#53AE94"/>
<path d="M16.8522 13.0014V10.77H21.9549V7.37012H8.06016V10.77H13.1635V12.9996C9.01596 13.1901 5.89746 14.0115 5.89746 14.9955C5.89746 15.9795 9.01746 16.8009 13.1635 16.9926V24.1401H16.8534V16.992C20.9934 16.8009 24.1056 15.9801 24.1056 14.997C24.1056 14.0139 20.9922 13.1925 16.8522 13.0014ZM16.8534 16.3866V16.3848C16.7493 16.3914 16.2144 16.4235 15.0234 16.4235C14.0713 16.4235 13.4014 16.3965 13.1653 16.3842V16.3872C9.50106 16.2249 6.76596 15.5868 6.76596 14.8233C6.76596 14.0598 9.50136 13.4226 13.1653 13.26V15.7515C13.4053 15.768 14.0917 15.8085 15.039 15.8085C16.1769 15.8085 16.749 15.7611 16.854 15.7515V13.26C20.511 13.4229 23.2398 14.0616 23.2398 14.8224C23.2398 15.5832 20.5092 16.2219 16.8534 16.3848" fill="white"/>
</g>
<defs>
<clipPath id="clip0_609_26">
<rect width="30" height="30" fill="white"/>
</clipPath>
</defs>
</svg>
