<svg width="30" height="30" viewBox="0 0 30 30" fill="none" xmlns="http://www.w3.org/2000/svg">
<g clip-path="url(#clip0_383_13)">
<path d="M15 30C23.2843 30 30 23.2843 30 15C30 6.71573 23.2843 0 15 0C6.71573 0 0 6.71573 0 15C0 23.2843 6.71573 30 15 30Z" fill="#15BDFF"/>
<path d="M13.8169 23.1881L6.6 8.48062C6.57369 8.42644 6.56154 8.36648 6.5647 8.30633C6.56785 8.24618 6.58621 8.18781 6.61805 8.13668C6.64989 8.08555 6.69417 8.04333 6.74676 8.01396C6.79934 7.98459 6.85852 7.96904 6.91875 7.96875H9.42C9.55406 7.96875 9.67969 8.04375 9.73875 8.16188L15.0094 18.8316C15.4781 19.7878 16.8384 19.7878 17.3081 18.8316L22.5619 8.17031C22.5922 8.11197 22.6379 8.06308 22.6941 8.02902C22.7504 7.99495 22.8149 7.97702 22.8806 7.97719H23.1919C23.3766 7.97719 23.4938 8.17031 23.4103 8.32969L16.1166 23.1891C15.6469 24.1453 14.2875 24.1453 13.8169 23.1891V23.1881Z" fill="white"/>
</g>
<defs>
<clipPath id="clip0_383_13">
<rect width="30" height="30" fill="white"/>
</clipPath>
</defs>
</svg>
