<svg width="30" height="30" viewBox="0 0 30 30" fill="none" xmlns="http://www.w3.org/2000/svg">
<g clip-path="url(#clip0_383_21)">
<circle cx="15.5" cy="15.5" r="12.5" fill="white"/>
<path d="M15 30C6.71531 30 0 23.2847 0 15C0 6.71531 6.71531 0 15 0C23.2847 0 30 6.71531 30 15C30 23.2847 23.2847 30 15 30ZM21.6844 8.71125L19.4344 9.85875L8.56125 15.3966C8.40633 14.2065 8.58509 12.9968 9.07759 11.9024C9.57009 10.808 10.3569 9.87192 11.3504 9.19863C12.3439 8.52534 13.5048 8.1413 14.7038 8.08934C15.9028 8.03738 17.0927 8.31955 18.1406 8.90438L19.4288 8.24813L19.6209 8.14969C18.3989 7.2629 16.9487 6.74431 15.4414 6.65515C13.9342 6.566 12.4329 6.91001 11.1149 7.64656C9.79681 8.38311 8.71706 9.48143 8.0031 10.8118C7.28913 12.1423 6.97078 13.6492 7.08563 15.1547C7.10712 15.4379 7.04434 15.7211 6.90521 15.9686C6.76608 16.2162 6.55681 16.4171 6.30375 16.5459L5.62406 16.8928V18.5091L7.62469 17.4891L8.2725 17.1581L8.91094 16.8328L20.3728 10.9922L21.6609 10.3369L24.3234 8.98031V7.365L21.6844 8.71125ZM24.3244 10.5975L9.56344 18.1125L8.27531 18.7688L5.625 20.1216V21.7369L8.2575 20.3963L10.5084 19.2487L21.3928 13.7025C21.5501 14.8944 21.3726 16.1065 20.8801 17.2033C20.3876 18.3 19.5996 19.238 18.6043 19.9123C17.6089 20.5866 16.4456 20.9706 15.2444 21.0213C14.0433 21.072 12.8517 20.7874 11.8031 20.1994L11.7234 20.2416L10.3266 20.9541C11.5488 21.8413 12.9994 22.3603 14.5071 22.4495C16.0148 22.5387 17.5165 22.1945 18.8348 21.4575C20.1532 20.7206 21.233 19.6217 21.9468 18.2907C22.6605 16.9597 22.9784 15.4521 22.8628 13.9463C22.8416 13.6634 22.9043 13.3805 23.0433 13.1331C23.1822 12.8858 23.3911 12.685 23.6437 12.5559L24.3244 12.2091V10.5984V10.5975Z" fill="black"/>
</g>
<defs>
<clipPath id="clip0_383_21">
<rect width="30" height="30" fill="white"/>
</clipPath>
</defs>
</svg>
