<svg width="30" height="30" viewBox="0 0 30 30" fill="none" xmlns="http://www.w3.org/2000/svg">
<mask id="mask0_609_29" style="mask-type:luminance" maskUnits="userSpaceOnUse" x="1" y="0" width="29" height="30">
<path d="M29.9972 0H1.42578V30H29.9972V0Z" fill="white"/>
</mask>
<g mask="url(#mask0_609_29)">
<path d="M19.9675 0.807115C18.0903 1.96513 16.9787 4.05628 16.9787 6.26144C16.9787 7.41944 17.4215 8.58644 17.976 9.62761C18.4188 10.5576 18.636 12.1808 17.0903 12.9938C15.9873 13.6868 14.5443 13.2248 13.8843 12.0638C13.2242 11.1338 12.4499 10.2038 11.4526 9.51061C9.57534 8.35259 7.36076 8.35259 5.48334 9.51061C3.60591 10.6686 2.49719 12.765 2.49719 14.9708C2.49719 17.1765 3.60019 19.2669 5.48291 20.4282C7.36019 21.5862 9.57476 21.5862 11.4522 20.4282C12.4495 19.846 13.2236 18.922 13.7725 17.8749C14.2153 17.0619 15.4325 16.0149 16.9784 16.9449C18.0814 17.6379 18.4128 19.153 17.8641 20.311C17.3098 21.3582 16.9784 22.5193 16.9784 23.6773C16.9784 25.8855 18.0814 27.9735 19.9673 29.1316C21.8445 30.2896 24.0591 30.2896 25.9365 29.1316C27.814 27.9736 28.9257 25.8825 28.9257 23.6773C28.9257 21.4722 27.8198 19.381 25.9368 18.2199C24.9395 17.6379 23.8337 17.4069 22.6193 17.4069C21.622 17.4069 20.299 16.7139 20.299 14.9708C20.299 13.5758 21.2963 12.5346 22.6193 12.5346C23.7223 12.5346 24.9395 12.3036 25.9368 11.7216C27.8141 10.5636 28.9257 8.47244 28.9257 6.26744C28.9257 4.06243 27.8198 1.97128 25.9368 0.813115C25.0511 0.231112 23.948 0.000110931 22.9511 0.000110931C21.9595 -0.00588909 20.8475 0.231112 19.9675 0.807115Z" fill="url(#paint0_linear_609_29)"/>
</g>
<defs>
<linearGradient id="paint0_linear_609_29" x1="2.49719" y1="-3.96966e-05" x2="28.9257" y2="-3.96966e-05" gradientUnits="userSpaceOnUse">
<stop stop-color="#11AAE2"/>
<stop offset="0.59" stop-color="#0880B7"/>
<stop offset="1" stop-color="#016197"/>
</linearGradient>
</defs>
</svg>
